<?xml version="1.0" encoding="utf-8"?>
<!-- Generator: Adobe Illustrator 16.0.0, SVG Export Plug-In . SVG Version: 6.00 Build 0)  -->
<!DOCTYPE svg PUBLIC "-//W3C//DTD SVG 1.1//EN" "http://www.w3.org/Graphics/SVG/1.1/DTD/svg11.dtd">
<svg version="1.1" id="Capa_1" xmlns="http://www.w3.org/2000/svg" xmlns:xlink="http://www.w3.org/1999/xlink" x="0px" y="0px"
	 width="220px" height="50px" viewBox="0 0 220 50" enable-background="new 0 0 220 50" xml:space="preserve">
<g>
	<g enable-background="new    ">
		<path fill="#041E42" d="M66.13,9.678c0.307-0.543,0.725-0.968,1.255-1.274c0.53-0.306,1.118-0.46,1.765-0.46
			c0.76,0,1.423,0.183,1.99,0.55c0.567,0.366,0.98,0.887,1.24,1.56h-1.09c-0.193-0.42-0.472-0.743-0.835-0.97
			c-0.363-0.227-0.798-0.34-1.305-0.34c-0.487,0-0.924,0.113-1.31,0.34c-0.387,0.227-0.69,0.549-0.91,0.965
			c-0.22,0.417-0.33,0.905-0.33,1.465c0,0.554,0.11,1.039,0.33,1.455c0.22,0.417,0.523,0.738,0.91,0.965
			c0.386,0.227,0.823,0.34,1.31,0.34c0.506,0,0.941-0.111,1.305-0.335c0.363-0.223,0.642-0.545,0.835-0.965h1.09
			c-0.26,0.667-0.673,1.182-1.24,1.545c-0.566,0.364-1.23,0.545-1.99,0.545c-0.647,0-1.235-0.151-1.765-0.454
			c-0.53-0.304-0.948-0.726-1.255-1.266c-0.307-0.54-0.46-1.149-0.46-1.83C65.67,10.833,65.824,10.222,66.13,9.678z"/>
		<path fill="#041E42" d="M74.725,14.743c-0.417-0.233-0.744-0.565-0.98-0.995c-0.237-0.43-0.355-0.929-0.355-1.495
			c0-0.56,0.122-1.055,0.365-1.485c0.243-0.43,0.575-0.76,0.995-0.989c0.42-0.23,0.89-0.346,1.41-0.346s0.99,0.115,1.41,0.346
			c0.42,0.229,0.751,0.558,0.995,0.984c0.243,0.427,0.365,0.924,0.365,1.49s-0.125,1.065-0.375,1.495
			c-0.25,0.43-0.589,0.762-1.015,0.995c-0.427,0.233-0.9,0.35-1.42,0.35C75.606,15.093,75.142,14.977,74.725,14.743z M77.04,14.063
			c0.287-0.153,0.518-0.383,0.695-0.689c0.177-0.306,0.265-0.68,0.265-1.12s-0.087-0.813-0.26-1.12
			c-0.173-0.307-0.4-0.535-0.68-0.685c-0.28-0.15-0.583-0.226-0.91-0.226c-0.333,0-0.638,0.075-0.915,0.226
			c-0.277,0.149-0.499,0.378-0.665,0.685c-0.166,0.307-0.25,0.68-0.25,1.12c0,0.446,0.082,0.823,0.245,1.13
			c0.163,0.307,0.381,0.535,0.655,0.686c0.273,0.149,0.574,0.225,0.9,0.225C76.446,14.293,76.753,14.217,77.04,14.063z"/>
		<path fill="#041E42" d="M81.041,7.603v7.4h-0.91v-7.4H81.041z"/>
		<path fill="#041E42" d="M87.56,12.603h-4.38c0.033,0.54,0.218,0.962,0.555,1.266c0.336,0.303,0.745,0.455,1.225,0.455
			c0.393,0,0.721-0.092,0.985-0.275c0.263-0.184,0.448-0.428,0.555-0.735h0.98c-0.147,0.527-0.44,0.955-0.88,1.285
			s-0.986,0.495-1.64,0.495c-0.52,0-0.985-0.116-1.395-0.35c-0.41-0.233-0.732-0.565-0.965-0.995s-0.35-0.929-0.35-1.495
			s0.113-1.063,0.34-1.49c0.227-0.427,0.545-0.755,0.955-0.984c0.41-0.23,0.881-0.346,1.415-0.346c0.52,0,0.98,0.113,1.38,0.34
			c0.4,0.228,0.708,0.539,0.925,0.936c0.217,0.396,0.325,0.845,0.325,1.345C87.59,12.227,87.58,12.409,87.56,12.603z M86.42,10.968
			c-0.153-0.25-0.362-0.439-0.625-0.57c-0.264-0.13-0.555-0.194-0.875-0.194c-0.46,0-0.852,0.146-1.175,0.439
			c-0.323,0.294-0.508,0.7-0.555,1.221h3.46C86.65,11.517,86.573,11.218,86.42,10.968z"/>
		<path fill="#041E42" d="M92.295,9.743c0.356,0.206,0.622,0.467,0.795,0.779v-1h0.92v5.601c0,0.5-0.107,0.945-0.32,1.335
			s-0.519,0.695-0.915,0.915c-0.396,0.22-0.858,0.33-1.385,0.33c-0.72,0-1.32-0.17-1.8-0.51c-0.48-0.341-0.763-0.804-0.85-1.391h0.9
			c0.1,0.333,0.307,0.602,0.62,0.806c0.313,0.203,0.69,0.305,1.13,0.305c0.5,0,0.908-0.157,1.225-0.47
			c0.316-0.313,0.475-0.754,0.475-1.32v-1.15c-0.18,0.32-0.447,0.587-0.8,0.8c-0.354,0.214-0.767,0.32-1.24,0.32
			c-0.486,0-0.928-0.12-1.325-0.359c-0.397-0.24-0.708-0.577-0.935-1.011c-0.227-0.433-0.34-0.927-0.34-1.479
			c0-0.561,0.113-1.052,0.34-1.476c0.227-0.423,0.538-0.751,0.935-0.984c0.396-0.233,0.838-0.351,1.325-0.351
			C91.523,9.433,91.938,9.536,92.295,9.743z M92.84,11.173c-0.167-0.307-0.392-0.541-0.675-0.705
			c-0.284-0.163-0.595-0.245-0.935-0.245s-0.65,0.08-0.93,0.24c-0.28,0.16-0.503,0.394-0.67,0.7c-0.167,0.306-0.25,0.667-0.25,1.08
			c0,0.42,0.083,0.785,0.25,1.095s0.39,0.547,0.67,0.71c0.28,0.163,0.59,0.245,0.93,0.245s0.651-0.082,0.935-0.245
			c0.283-0.163,0.508-0.4,0.675-0.71s0.25-0.672,0.25-1.085S93.006,11.479,92.84,11.173z"/>
		<path fill="#041E42" d="M95.58,8.453c-0.12-0.12-0.18-0.267-0.18-0.44c0-0.173,0.06-0.319,0.18-0.439
			c0.12-0.12,0.267-0.181,0.44-0.181c0.167,0,0.308,0.061,0.425,0.181c0.117,0.12,0.175,0.267,0.175,0.439
			c0,0.174-0.058,0.32-0.175,0.44c-0.117,0.12-0.258,0.18-0.425,0.18C95.846,8.633,95.7,8.573,95.58,8.453z M96.46,9.522v5.48h-0.91
			v-5.48H96.46z"/>
		<path fill="#041E42" d="M99.005,14.743c-0.417-0.233-0.744-0.565-0.98-0.995c-0.237-0.43-0.355-0.929-0.355-1.495
			c0-0.56,0.122-1.055,0.365-1.485c0.243-0.43,0.575-0.76,0.995-0.989c0.42-0.23,0.89-0.346,1.41-0.346s0.99,0.115,1.41,0.346
			c0.42,0.229,0.751,0.558,0.995,0.984c0.243,0.427,0.365,0.924,0.365,1.49s-0.125,1.065-0.375,1.495
			c-0.25,0.43-0.589,0.762-1.015,0.995c-0.427,0.233-0.9,0.35-1.42,0.35C99.886,15.093,99.421,14.977,99.005,14.743z M101.32,14.063
			c0.287-0.153,0.518-0.383,0.695-0.689c0.177-0.306,0.265-0.68,0.265-1.12s-0.087-0.813-0.26-1.12
			c-0.173-0.307-0.4-0.535-0.68-0.685c-0.28-0.15-0.583-0.226-0.91-0.226c-0.333,0-0.638,0.075-0.915,0.226
			c-0.277,0.149-0.499,0.378-0.665,0.685c-0.166,0.307-0.25,0.68-0.25,1.12c0,0.446,0.082,0.823,0.245,1.13
			c0.163,0.307,0.381,0.535,0.655,0.686c0.273,0.149,0.574,0.225,0.9,0.225C100.726,14.293,101.033,14.217,101.32,14.063z"/>
		<path fill="#041E42" d="M107.08,10.768c0.227-0.423,0.538-0.751,0.935-0.984c0.396-0.233,0.841-0.351,1.335-0.351
			c0.427,0,0.823,0.099,1.19,0.295c0.366,0.197,0.646,0.455,0.84,0.775v-2.9h0.92v7.4h-0.92v-1.03
			c-0.18,0.327-0.446,0.596-0.801,0.806c-0.353,0.21-0.766,0.314-1.24,0.314c-0.486,0-0.928-0.12-1.325-0.359
			c-0.397-0.24-0.708-0.577-0.935-1.011c-0.227-0.433-0.34-0.927-0.34-1.479C106.74,11.683,106.853,11.191,107.08,10.768z
			 M111.13,11.173c-0.167-0.307-0.394-0.541-0.675-0.705c-0.284-0.163-0.595-0.245-0.935-0.245s-0.65,0.08-0.93,0.24
			c-0.28,0.16-0.503,0.394-0.67,0.7c-0.167,0.306-0.25,0.667-0.25,1.08c0,0.42,0.083,0.785,0.25,1.095s0.39,0.547,0.67,0.71
			c0.28,0.163,0.59,0.245,0.93,0.245s0.651-0.082,0.935-0.245c0.283-0.163,0.508-0.4,0.675-0.71c0.166-0.31,0.25-0.672,0.25-1.085
			S111.296,11.479,111.13,11.173z"/>
		<path fill="#041E42" d="M118.811,12.603h-4.381c0.033,0.54,0.219,0.962,0.557,1.266c0.336,0.303,0.744,0.455,1.225,0.455
			c0.393,0,0.721-0.092,0.984-0.275c0.263-0.183,0.449-0.428,0.556-0.735h0.979c-0.146,0.527-0.439,0.955-0.881,1.285
			c-0.44,0.33-0.985,0.495-1.64,0.495c-0.521,0-0.985-0.116-1.396-0.35c-0.409-0.233-0.731-0.565-0.965-0.995
			c-0.234-0.43-0.351-0.929-0.351-1.495s0.112-1.063,0.34-1.49c0.228-0.427,0.545-0.755,0.955-0.984
			c0.409-0.23,0.882-0.346,1.415-0.346c0.52,0,0.98,0.113,1.38,0.34c0.399,0.228,0.708,0.539,0.925,0.936s0.325,0.845,0.325,1.345
			C118.84,12.227,118.829,12.409,118.811,12.603z M117.67,10.968c-0.152-0.25-0.361-0.439-0.625-0.57
			c-0.264-0.13-0.556-0.194-0.875-0.194c-0.46,0-0.854,0.146-1.175,0.439c-0.324,0.294-0.509,0.7-0.556,1.221h3.459
			C117.898,11.517,117.823,11.218,117.67,10.968z"/>
		<path fill="#041E42" d="M126.649,8.033v0.739h-3.029v2.351h2.459v0.74h-2.459v3.14h-0.91v-6.97H126.649z"/>
		<path fill="#041E42" d="M127.749,10.768c0.227-0.423,0.539-0.751,0.936-0.984c0.397-0.233,0.838-0.351,1.324-0.351
			c0.48,0,0.897,0.104,1.25,0.311c0.354,0.206,0.617,0.467,0.791,0.779v-1h0.92v5.48h-0.92v-1.02
			c-0.18,0.319-0.449,0.585-0.805,0.795c-0.357,0.21-0.771,0.314-1.246,0.314c-0.486,0-0.926-0.12-1.318-0.359
			c-0.395-0.24-0.705-0.577-0.932-1.011c-0.227-0.433-0.34-0.927-0.34-1.479C127.409,11.683,127.522,11.191,127.749,10.768z
			 M131.8,11.173c-0.167-0.307-0.393-0.541-0.676-0.705c-0.283-0.163-0.596-0.245-0.936-0.245s-0.648,0.08-0.931,0.24
			c-0.278,0.16-0.503,0.394-0.67,0.7c-0.166,0.307-0.25,0.667-0.25,1.08c0,0.42,0.084,0.785,0.25,1.095
			c0.167,0.31,0.392,0.547,0.67,0.71c0.281,0.163,0.591,0.245,0.931,0.245s0.651-0.082,0.936-0.245s0.509-0.4,0.676-0.71
			c0.166-0.31,0.25-0.672,0.25-1.085S131.966,11.479,131.8,11.173z"/>
		<path fill="#041E42" d="M136.104,9.683c0.297-0.173,0.658-0.26,1.086-0.26v0.94h-0.24c-1.021,0-1.53,0.553-1.53,1.659v2.98h-0.909
			v-5.48h0.909v0.891C135.579,10.1,135.808,9.856,136.104,9.683z"/>
		<path fill="#041E42" d="M145.97,9.688c0.334,0.177,0.596,0.442,0.789,0.796c0.193,0.353,0.291,0.783,0.291,1.289v3.23h-0.9v-3.1
			c0-0.547-0.135-0.966-0.404-1.256c-0.271-0.289-0.635-0.435-1.096-0.435c-0.474,0-0.85,0.151-1.131,0.455
			c-0.278,0.304-0.42,0.741-0.42,1.315v3.02h-0.899v-3.1c0-0.547-0.136-0.966-0.405-1.256c-0.27-0.289-0.635-0.435-1.095-0.435
			c-0.474,0-0.851,0.151-1.13,0.455c-0.28,0.304-0.42,0.741-0.42,1.315v3.02h-0.91v-5.48h0.91v0.79
			c0.18-0.286,0.422-0.506,0.725-0.659c0.305-0.153,0.639-0.23,1.006-0.23c0.459,0,0.865,0.104,1.219,0.311
			c0.354,0.206,0.617,0.51,0.791,0.909c0.152-0.386,0.406-0.687,0.76-0.899c0.354-0.214,0.746-0.32,1.181-0.32
			C145.256,9.423,145.636,9.512,145.97,9.688z"/>
		<path fill="#041E42" d="M148.54,10.768c0.227-0.423,0.537-0.751,0.936-0.984c0.396-0.233,0.838-0.351,1.324-0.351
			c0.479,0,0.896,0.104,1.25,0.311c0.354,0.206,0.616,0.467,0.789,0.779v-1h0.922v5.48h-0.922v-1.02
			c-0.18,0.319-0.447,0.585-0.805,0.795c-0.355,0.21-0.771,0.314-1.244,0.314c-0.486,0-0.928-0.12-1.32-0.359
			c-0.394-0.24-0.703-0.577-0.93-1.011c-0.227-0.433-0.34-0.927-0.34-1.479C148.2,11.683,148.313,11.191,148.54,10.768z
			 M152.589,11.173c-0.166-0.307-0.391-0.541-0.674-0.705c-0.284-0.163-0.596-0.245-0.936-0.245s-0.65,0.08-0.931,0.24
			s-0.504,0.394-0.67,0.7c-0.167,0.307-0.25,0.667-0.25,1.08c0,0.42,0.083,0.785,0.25,1.095c0.166,0.31,0.39,0.547,0.67,0.71
			c0.279,0.163,0.591,0.245,0.931,0.245s0.65-0.082,0.936-0.245c0.283-0.163,0.508-0.4,0.674-0.71c0.167-0.31,0.25-0.672,0.25-1.085
			S152.756,11.479,152.589,11.173z"/>
		<path fill="#041E42" d="M155.3,10.768c0.227-0.423,0.541-0.751,0.944-0.984c0.403-0.233,0.864-0.351,1.386-0.351
			c0.674,0,1.229,0.164,1.664,0.49c0.438,0.327,0.727,0.78,0.865,1.36h-0.98c-0.093-0.334-0.273-0.597-0.545-0.79
			c-0.27-0.193-0.604-0.29-1.004-0.29c-0.521,0-0.939,0.179-1.261,0.535c-0.319,0.356-0.479,0.861-0.479,1.515
			c0,0.66,0.16,1.17,0.479,1.53c0.319,0.359,0.739,0.54,1.261,0.54c0.398,0,0.732-0.094,1-0.28c0.266-0.187,0.449-0.453,0.549-0.8
			h0.98c-0.146,0.56-0.439,1.008-0.881,1.345c-0.44,0.337-0.989,0.505-1.648,0.505c-0.521,0-0.982-0.116-1.386-0.35
			c-0.404-0.234-0.718-0.563-0.944-0.99c-0.226-0.427-0.34-0.927-0.34-1.5C154.96,11.687,155.073,11.191,155.3,10.768z"/>
		<path fill="#041E42" d="M166.339,12.603h-4.38c0.033,0.54,0.218,0.962,0.556,1.266c0.336,0.303,0.744,0.455,1.226,0.455
			c0.393,0,0.721-0.092,0.983-0.275c0.264-0.183,0.449-0.428,0.557-0.735h0.979c-0.146,0.527-0.439,0.955-0.88,1.285
			s-0.985,0.495-1.64,0.495c-0.52,0-0.985-0.116-1.395-0.35c-0.41-0.233-0.732-0.565-0.967-0.995s-0.35-0.929-0.35-1.495
			s0.113-1.063,0.34-1.49c0.227-0.427,0.545-0.755,0.955-0.984c0.408-0.23,0.882-0.346,1.414-0.346c0.521,0,0.98,0.113,1.381,0.34
			c0.398,0.228,0.708,0.539,0.925,0.936s0.325,0.845,0.325,1.345C166.369,12.227,166.358,12.409,166.339,12.603z M165.199,10.968
			c-0.153-0.25-0.362-0.439-0.625-0.57c-0.265-0.13-0.556-0.194-0.875-0.194c-0.46,0-0.853,0.146-1.175,0.439
			c-0.324,0.294-0.51,0.7-0.555,1.221h3.459C165.429,11.517,165.353,11.218,165.199,10.968z M164.679,7.973l-2.129,1.141V8.433
			l2.129-1.25V7.973z"/>
		<path fill="#041E42" d="M172.429,9.522v5.48h-0.908v-0.81c-0.174,0.279-0.416,0.498-0.727,0.654
			c-0.311,0.157-0.65,0.235-1.023,0.235c-0.428,0-0.811-0.088-1.15-0.265c-0.34-0.177-0.607-0.442-0.805-0.796
			c-0.196-0.353-0.295-0.783-0.295-1.289V9.522h0.898v3.091c0,0.54,0.137,0.955,0.41,1.245c0.273,0.289,0.646,0.435,1.12,0.435
			c0.487,0,0.87-0.15,1.149-0.45c0.28-0.3,0.42-0.736,0.42-1.31V9.522H172.429z"/>
		<path fill="#041E42" d="M175.079,10.272v3.23c0,0.267,0.057,0.455,0.17,0.565c0.113,0.109,0.311,0.165,0.59,0.165h0.67v0.77
			h-0.818c-0.508,0-0.887-0.116-1.141-0.35c-0.254-0.233-0.381-0.617-0.381-1.15v-3.23h-0.71v-0.75h0.71v-1.38h0.91v1.38h1.43v0.75
			H175.079z"/>
		<path fill="#041E42" d="M177.64,8.453c-0.119-0.12-0.18-0.267-0.18-0.44c0-0.173,0.061-0.319,0.18-0.439
			c0.119-0.12,0.267-0.181,0.439-0.181c0.167,0,0.309,0.061,0.426,0.181c0.116,0.12,0.174,0.267,0.174,0.439
			c0,0.174-0.058,0.32-0.174,0.44c-0.117,0.12-0.259,0.18-0.426,0.18C177.905,8.633,177.759,8.573,177.64,8.453z M178.521,9.522
			v5.48h-0.91v-5.48H178.521z"/>
		<path fill="#041E42" d="M180.069,10.768c0.227-0.423,0.541-0.751,0.943-0.984c0.403-0.233,0.865-0.351,1.387-0.351
			c0.673,0,1.228,0.164,1.664,0.49c0.438,0.327,0.726,0.78,0.865,1.36h-0.98c-0.094-0.334-0.274-0.597-0.545-0.79
			c-0.271-0.193-0.604-0.29-1.004-0.29c-0.521,0-0.94,0.179-1.262,0.535c-0.318,0.356-0.479,0.861-0.479,1.515
			c0,0.66,0.16,1.17,0.479,1.53c0.32,0.359,0.74,0.54,1.262,0.54c0.398,0,0.731-0.094,1-0.28c0.266-0.187,0.449-0.453,0.549-0.8
			h0.98c-0.146,0.56-0.439,1.008-0.881,1.345s-0.99,0.505-1.648,0.505c-0.521,0-0.982-0.116-1.387-0.35
			c-0.404-0.234-0.718-0.563-0.943-0.99c-0.227-0.427-0.34-0.927-0.34-1.5C179.729,11.687,179.843,11.191,180.069,10.768z"/>
		<path fill="#041E42" d="M187.134,14.743c-0.416-0.233-0.742-0.565-0.979-0.995c-0.237-0.43-0.354-0.929-0.354-1.495
			c0-0.56,0.121-1.055,0.364-1.485s0.575-0.76,0.995-0.989c0.42-0.23,0.891-0.346,1.409-0.346c0.52,0,0.99,0.115,1.41,0.346
			c0.42,0.229,0.752,0.558,0.994,0.984c0.244,0.427,0.365,0.924,0.365,1.49s-0.125,1.065-0.375,1.495
			c-0.25,0.43-0.588,0.762-1.015,0.995c-0.427,0.233-0.899,0.35-1.421,0.35C188.017,15.093,187.551,14.977,187.134,14.743z
			 M189.449,14.063c0.286-0.153,0.519-0.383,0.694-0.689c0.178-0.307,0.266-0.68,0.266-1.12s-0.087-0.813-0.26-1.12
			c-0.174-0.307-0.4-0.535-0.68-0.685c-0.281-0.15-0.584-0.226-0.91-0.226c-0.334,0-0.64,0.075-0.916,0.226
			c-0.276,0.149-0.498,0.378-0.664,0.685c-0.168,0.307-0.25,0.68-0.25,1.12c0,0.446,0.08,0.823,0.244,1.13
			c0.164,0.307,0.381,0.535,0.654,0.686c0.273,0.149,0.573,0.225,0.9,0.225C188.854,14.293,189.163,14.217,189.449,14.063z"/>
		<path fill="#041E42" d="M193.349,14.878c-0.332-0.144-0.596-0.344-0.789-0.6c-0.192-0.257-0.301-0.552-0.319-0.886h0.938
			c0.027,0.273,0.155,0.497,0.385,0.67c0.23,0.174,0.533,0.261,0.906,0.261c0.346,0,0.619-0.077,0.819-0.23
			c0.2-0.153,0.3-0.347,0.3-0.58c0-0.24-0.105-0.418-0.32-0.535c-0.213-0.116-0.543-0.231-0.99-0.345
			c-0.405-0.106-0.737-0.215-0.993-0.325c-0.257-0.109-0.478-0.273-0.66-0.489c-0.185-0.217-0.274-0.502-0.274-0.855
			c0-0.28,0.084-0.536,0.25-0.77c0.166-0.233,0.403-0.419,0.711-0.556c0.307-0.137,0.655-0.205,1.049-0.205
			c0.606,0,1.098,0.153,1.471,0.46s0.572,0.728,0.6,1.261h-0.91c-0.02-0.287-0.135-0.517-0.345-0.69
			c-0.21-0.173-0.491-0.26-0.845-0.26c-0.326,0-0.587,0.069-0.78,0.21c-0.192,0.14-0.29,0.323-0.29,0.55
			c0,0.18,0.059,0.328,0.176,0.445c0.117,0.116,0.264,0.21,0.439,0.279c0.178,0.07,0.422,0.148,0.734,0.235
			c0.395,0.106,0.714,0.212,0.961,0.315c0.246,0.104,0.457,0.258,0.635,0.465c0.176,0.206,0.268,0.477,0.275,0.81
			c0,0.3-0.084,0.57-0.25,0.811c-0.168,0.239-0.402,0.428-0.705,0.564c-0.305,0.137-0.652,0.205-1.045,0.205
			C194.06,15.093,193.683,15.021,193.349,14.878z"/>
	</g>
	<g enable-background="new    ">
		<path fill="#041E42" d="M66.01,22.768c0.227-0.423,0.538-0.751,0.935-0.984c0.396-0.233,0.841-0.351,1.335-0.351
			c0.427,0,0.823,0.099,1.19,0.295c0.367,0.197,0.646,0.455,0.84,0.775v-2.9h0.92v7.4h-0.92v-1.03
			c-0.18,0.327-0.447,0.596-0.8,0.807c-0.354,0.21-0.767,0.313-1.24,0.313c-0.486,0-0.928-0.12-1.325-0.358
			c-0.397-0.24-0.708-0.577-0.935-1.012c-0.227-0.433-0.34-0.927-0.34-1.479C65.67,23.683,65.784,23.191,66.01,22.768z
			 M70.06,23.173c-0.167-0.307-0.392-0.541-0.675-0.705c-0.284-0.163-0.595-0.245-0.935-0.245c-0.34,0-0.65,0.08-0.93,0.24
			s-0.503,0.394-0.67,0.7c-0.167,0.306-0.25,0.667-0.25,1.08c0,0.42,0.083,0.785,0.25,1.095c0.167,0.311,0.39,0.547,0.67,0.71
			s0.59,0.245,0.93,0.245c0.34,0,0.651-0.082,0.935-0.245c0.283-0.163,0.508-0.399,0.675-0.71c0.167-0.31,0.25-0.672,0.25-1.085
			S70.227,23.479,70.06,23.173z"/>
		<path fill="#041E42" d="M77.74,24.603h-4.38c0.033,0.54,0.218,0.961,0.555,1.266c0.336,0.303,0.745,0.455,1.225,0.455
			c0.393,0,0.721-0.092,0.985-0.275c0.263-0.184,0.448-0.428,0.555-0.735h0.98c-0.147,0.527-0.44,0.956-0.88,1.286
			c-0.44,0.33-0.986,0.494-1.64,0.494c-0.52,0-0.985-0.115-1.395-0.35c-0.41-0.233-0.732-0.564-0.965-0.995
			c-0.233-0.43-0.35-0.929-0.35-1.495s0.113-1.063,0.34-1.49c0.227-0.427,0.545-0.755,0.955-0.984
			c0.41-0.23,0.881-0.346,1.415-0.346c0.52,0,0.98,0.113,1.38,0.34c0.4,0.228,0.708,0.539,0.925,0.936
			c0.217,0.396,0.325,0.845,0.325,1.345C77.77,24.227,77.76,24.409,77.74,24.603z M76.6,22.968c-0.153-0.25-0.362-0.439-0.625-0.57
			c-0.264-0.13-0.555-0.194-0.875-0.194c-0.46,0-0.852,0.146-1.175,0.439c-0.323,0.294-0.508,0.7-0.555,1.221h3.46
			C76.83,23.517,76.753,23.218,76.6,22.968z"/>
		<path fill="#041E42" d="M82.55,19.603v7.4h-0.91v-7.4H82.55z"/>
		<path fill="#041E42" d="M84.1,22.768c0.227-0.423,0.538-0.751,0.935-0.984c0.396-0.233,0.838-0.351,1.325-0.351
			c0.48,0,0.897,0.104,1.25,0.311c0.354,0.206,0.617,0.467,0.79,0.779v-1h0.92v5.48H88.4v-1.021
			c-0.18,0.319-0.448,0.586-0.805,0.795c-0.357,0.211-0.772,0.314-1.245,0.314c-0.487,0-0.927-0.119-1.32-0.359
			c-0.394-0.239-0.704-0.576-0.93-1.01c-0.227-0.434-0.34-0.928-0.34-1.479C83.76,23.683,83.874,23.191,84.1,22.768z M88.15,23.173
			c-0.167-0.307-0.392-0.541-0.675-0.705c-0.284-0.163-0.595-0.245-0.935-0.245s-0.65,0.08-0.93,0.24
			c-0.28,0.16-0.503,0.394-0.67,0.7c-0.167,0.306-0.25,0.667-0.25,1.08c0,0.42,0.083,0.785,0.25,1.095
			c0.167,0.311,0.39,0.547,0.67,0.71c0.28,0.163,0.59,0.245,0.93,0.245s0.651-0.082,0.935-0.245c0.283-0.163,0.508-0.399,0.675-0.71
			c0.167-0.31,0.25-0.672,0.25-1.085S88.316,23.479,88.15,23.173z"/>
		<path fill="#041E42" d="M97.595,23.518c-0.396,0.384-1.001,0.575-1.815,0.575h-1.34v2.91h-0.91v-6.97h2.25
			c0.787,0,1.385,0.189,1.795,0.569c0.41,0.381,0.615,0.87,0.615,1.471C98.19,22.653,97.991,23.135,97.595,23.518z M96.9,23.013
			c0.24-0.22,0.36-0.533,0.36-0.939c0-0.86-0.494-1.29-1.48-1.29h-1.34v2.56h1.34C96.286,23.343,96.66,23.233,96.9,23.013z"/>
		<path fill="#041E42" d="M100.915,21.683c0.296-0.173,0.658-0.26,1.085-0.26v0.94h-0.24c-1.02,0-1.53,0.553-1.53,1.659v2.98h-0.91
			v-5.48h0.91v0.891C100.39,22.1,100.618,21.856,100.915,21.683z"/>
		<path fill="#041E42" d="M104.045,26.743c-0.417-0.233-0.744-0.565-0.98-0.995c-0.237-0.43-0.355-0.929-0.355-1.495
			c0-0.56,0.122-1.055,0.365-1.485c0.243-0.43,0.575-0.76,0.995-0.989c0.42-0.23,0.89-0.346,1.41-0.346s0.99,0.115,1.41,0.346
			c0.42,0.229,0.751,0.558,0.995,0.984c0.243,0.427,0.365,0.924,0.365,1.49s-0.125,1.065-0.375,1.495
			c-0.25,0.43-0.589,0.762-1.015,0.995c-0.427,0.233-0.9,0.35-1.42,0.35C104.926,27.093,104.461,26.977,104.045,26.743z
			 M106.36,26.063c0.287-0.152,0.518-0.383,0.695-0.688c0.177-0.306,0.265-0.68,0.265-1.12s-0.087-0.813-0.26-1.12
			c-0.173-0.307-0.4-0.535-0.68-0.685c-0.28-0.15-0.583-0.226-0.91-0.226c-0.333,0-0.638,0.075-0.915,0.226
			c-0.277,0.149-0.499,0.378-0.665,0.685c-0.166,0.307-0.25,0.68-0.25,1.12c0,0.446,0.082,0.823,0.245,1.13
			c0.163,0.308,0.381,0.535,0.655,0.687c0.273,0.148,0.574,0.225,0.9,0.225C105.766,26.293,106.073,26.217,106.36,26.063z"/>
		<path fill="#041E42" d="M111.489,26.163l1.7-4.641h0.97l-2.149,5.48h-1.06l-2.15-5.48h0.98L111.489,26.163z"/>
		<path fill="#041E42" d="M115.089,20.453c-0.118-0.12-0.18-0.267-0.18-0.44c0-0.173,0.062-0.319,0.18-0.439
			c0.121-0.12,0.269-0.181,0.441-0.181c0.165,0,0.308,0.061,0.424,0.181c0.116,0.12,0.176,0.267,0.176,0.439
			c0,0.174-0.06,0.32-0.176,0.44s-0.259,0.18-0.424,0.18C115.355,20.633,115.21,20.573,115.089,20.453z M115.971,21.522v5.48h-0.91
			v-5.48H115.971z"/>
		<path fill="#041E42" d="M121.81,22.028c0.414,0.403,0.621,0.984,0.621,1.744v3.23h-0.9v-3.1c0-0.547-0.137-0.966-0.409-1.256
			c-0.272-0.289-0.646-0.435-1.121-0.435c-0.479,0-0.861,0.15-1.145,0.45c-0.285,0.3-0.426,0.736-0.426,1.31v3.03h-0.91v-5.48h0.91
			v0.78c0.18-0.28,0.426-0.496,0.735-0.649c0.31-0.153,0.649-0.23,1.024-0.23C120.856,21.423,121.396,21.625,121.81,22.028z"/>
		<path fill="#041E42" d="M123.919,22.768c0.227-0.423,0.542-0.751,0.945-0.984c0.402-0.233,0.865-0.351,1.385-0.351
			c0.674,0,1.229,0.164,1.666,0.49c0.436,0.327,0.725,0.78,0.863,1.36H127.8c-0.094-0.334-0.275-0.597-0.545-0.79
			c-0.271-0.193-0.605-0.29-1.006-0.29c-0.52,0-0.939,0.179-1.26,0.535c-0.321,0.356-0.48,0.861-0.48,1.515
			c0,0.66,0.16,1.17,0.48,1.53c0.32,0.359,0.74,0.54,1.26,0.54c0.4,0,0.734-0.095,1-0.28c0.268-0.188,0.45-0.453,0.551-0.8h0.979
			c-0.146,0.56-0.439,1.008-0.879,1.345c-0.44,0.337-0.99,0.505-1.65,0.505c-0.52,0-0.98-0.116-1.385-0.35
			c-0.404-0.234-0.719-0.563-0.945-0.99s-0.34-0.927-0.34-1.5C123.579,23.687,123.692,23.191,123.919,22.768z"/>
		<path fill="#041E42" d="M130.019,20.453c-0.119-0.12-0.18-0.267-0.18-0.44c0-0.173,0.061-0.319,0.18-0.439
			c0.121-0.12,0.269-0.181,0.441-0.181c0.166,0,0.309,0.061,0.424,0.181c0.117,0.12,0.176,0.267,0.176,0.439
			c0,0.174-0.059,0.32-0.176,0.44c-0.115,0.12-0.258,0.18-0.424,0.18C130.286,20.633,130.14,20.573,130.019,20.453z M130.899,21.522
			v5.48h-0.91v-5.48H130.899z"/>
		<path fill="#041E42" d="M132.449,22.768c0.227-0.423,0.538-0.751,0.935-0.984c0.397-0.233,0.84-0.351,1.325-0.351
			c0.479,0,0.897,0.104,1.25,0.311c0.354,0.206,0.616,0.467,0.79,0.779v-1h0.92v5.48h-0.92v-1.021
			c-0.18,0.319-0.448,0.586-0.805,0.795c-0.357,0.211-0.771,0.314-1.245,0.314c-0.487,0-0.927-0.119-1.319-0.359
			c-0.395-0.239-0.704-0.576-0.931-1.01c-0.228-0.434-0.341-0.928-0.341-1.479C132.108,23.683,132.224,23.191,132.449,22.768z
			 M136.499,23.173c-0.166-0.307-0.393-0.541-0.675-0.705c-0.284-0.163-0.595-0.245-0.935-0.245c-0.341,0-0.65,0.08-0.932,0.24
			s-0.503,0.394-0.67,0.7c-0.167,0.306-0.25,0.667-0.25,1.08c0,0.42,0.083,0.785,0.25,1.095c0.167,0.311,0.391,0.547,0.67,0.71
			s0.591,0.245,0.932,0.245c0.34,0,0.649-0.082,0.935-0.245c0.282-0.163,0.509-0.399,0.675-0.71c0.166-0.31,0.25-0.672,0.25-1.085
			S136.665,23.479,136.499,23.173z"/>
		<path fill="#041E42" d="M141.88,22.768c0.227-0.423,0.537-0.751,0.936-0.984c0.396-0.233,0.841-0.351,1.334-0.351
			c0.428,0,0.824,0.099,1.189,0.295c0.367,0.197,0.646,0.455,0.84,0.775v-2.9h0.922v7.4h-0.922v-1.03
			c-0.18,0.327-0.445,0.596-0.799,0.807c-0.354,0.21-0.768,0.313-1.24,0.313c-0.486,0-0.929-0.12-1.324-0.358
			c-0.397-0.24-0.709-0.577-0.936-1.012c-0.227-0.433-0.34-0.927-0.34-1.479C141.54,23.683,141.653,23.191,141.88,22.768z
			 M145.929,23.173c-0.166-0.307-0.391-0.541-0.674-0.705c-0.283-0.163-0.596-0.245-0.936-0.245s-0.65,0.08-0.93,0.24
			c-0.281,0.16-0.504,0.394-0.67,0.7c-0.168,0.307-0.25,0.667-0.25,1.08c0,0.42,0.082,0.785,0.25,1.095
			c0.166,0.311,0.389,0.547,0.67,0.71c0.278,0.163,0.59,0.245,0.93,0.245s0.65-0.082,0.936-0.245
			c0.283-0.163,0.508-0.399,0.674-0.71c0.168-0.31,0.25-0.672,0.25-1.085S146.097,23.479,145.929,23.173z"/>
		<path fill="#041E42" d="M153.608,24.603h-4.379c0.033,0.54,0.218,0.961,0.555,1.266c0.336,0.303,0.744,0.455,1.225,0.455
			c0.395,0,0.723-0.092,0.985-0.275s0.448-0.428,0.556-0.735h0.979c-0.146,0.527-0.439,0.956-0.879,1.286
			c-0.44,0.33-0.986,0.494-1.642,0.494c-0.521,0-0.983-0.115-1.396-0.35c-0.41-0.234-0.731-0.564-0.965-0.995
			c-0.233-0.43-0.35-0.929-0.35-1.495s0.113-1.063,0.34-1.49c0.228-0.427,0.545-0.755,0.955-0.984
			c0.409-0.23,0.881-0.346,1.414-0.346c0.521,0,0.98,0.113,1.381,0.34c0.399,0.228,0.709,0.539,0.924,0.936
			c0.217,0.396,0.326,0.845,0.326,1.345C153.64,24.227,153.629,24.409,153.608,24.603z M152.47,22.968
			c-0.154-0.25-0.361-0.439-0.625-0.57c-0.264-0.13-0.556-0.194-0.875-0.194c-0.461,0-0.853,0.146-1.176,0.439
			c-0.322,0.294-0.508,0.7-0.555,1.221h3.46C152.699,23.517,152.622,23.218,152.47,22.968z"/>
		<path fill="#041E42" d="M161.694,23.723c0.209,0.167,0.377,0.374,0.5,0.62c0.123,0.247,0.186,0.51,0.186,0.79
			c0,0.354-0.091,0.672-0.271,0.955c-0.18,0.283-0.441,0.507-0.784,0.67s-0.749,0.245-1.216,0.245h-2.601v-6.97h2.5
			c0.474,0,0.878,0.078,1.212,0.234c0.332,0.157,0.582,0.369,0.75,0.636c0.166,0.267,0.25,0.566,0.25,0.899
			c0,0.414-0.113,0.755-0.337,1.025c-0.223,0.27-0.518,0.465-0.885,0.585C161.253,23.453,161.483,23.557,161.694,23.723z
			 M158.419,23.043h1.53c0.427,0,0.757-0.1,0.989-0.3c0.233-0.2,0.351-0.477,0.351-0.83s-0.116-0.63-0.351-0.83
			c-0.233-0.2-0.569-0.3-1.01-0.3h-1.511L158.419,23.043L158.419,23.043z M161.089,25.934c0.254-0.214,0.381-0.511,0.381-0.891
			c0-0.387-0.134-0.691-0.4-0.915c-0.266-0.224-0.622-0.335-1.069-0.335h-1.58v2.46h1.61
			C160.481,26.253,160.836,26.146,161.089,25.934z"/>
		<path fill="#041E42" d="M168.499,21.522v5.48h-0.91v-0.811c-0.174,0.279-0.414,0.498-0.725,0.654
			c-0.311,0.157-0.652,0.235-1.025,0.235c-0.426,0-0.811-0.088-1.15-0.265c-0.34-0.178-0.606-0.442-0.805-0.797
			c-0.195-0.353-0.295-0.783-0.295-1.289V21.52h0.9v3.091c0,0.54,0.137,0.956,0.41,1.245c0.272,0.289,0.646,0.436,1.119,0.436
			c0.486,0,0.871-0.15,1.149-0.45c0.28-0.3,0.42-0.736,0.42-1.31V21.52h0.911V21.522z"/>
		<path fill="#041E42" d="M175.009,24.603h-4.38c0.033,0.54,0.218,0.961,0.556,1.266c0.336,0.303,0.744,0.455,1.226,0.455
			c0.394,0,0.721-0.092,0.983-0.275c0.264-0.183,0.449-0.428,0.557-0.735h0.979c-0.146,0.527-0.438,0.956-0.88,1.286
			c-0.44,0.33-0.985,0.494-1.64,0.494c-0.52,0-0.985-0.115-1.395-0.35c-0.41-0.233-0.732-0.564-0.967-0.995
			c-0.234-0.43-0.35-0.929-0.35-1.495s0.113-1.063,0.34-1.49c0.227-0.427,0.545-0.755,0.955-0.984
			c0.408-0.23,0.882-0.346,1.415-0.346c0.521,0,0.979,0.113,1.38,0.34c0.398,0.228,0.708,0.539,0.925,0.936
			c0.218,0.397,0.325,0.845,0.325,1.345C175.039,24.227,175.028,24.409,175.009,24.603z M173.869,22.968
			c-0.153-0.25-0.362-0.439-0.625-0.57c-0.265-0.13-0.556-0.194-0.875-0.194c-0.46,0-0.853,0.146-1.175,0.439
			c-0.324,0.294-0.51,0.7-0.555,1.221h3.459C174.099,23.517,174.022,23.218,173.869,22.968z"/>
		<path fill="#041E42" d="M180.528,22.028c0.414,0.403,0.621,0.984,0.621,1.744v3.23h-0.9v-3.1c0-0.547-0.137-0.966-0.41-1.256
			c-0.273-0.289-0.646-0.435-1.119-0.435c-0.479,0-0.863,0.15-1.146,0.45c-0.284,0.3-0.424,0.736-0.424,1.31v3.03h-0.91v-5.48h0.91
			v0.78c0.18-0.28,0.424-0.496,0.733-0.649c0.31-0.153,0.651-0.23,1.025-0.23C179.575,21.423,180.115,21.625,180.528,22.028z"/>
		<path fill="#041E42" d="M183.634,26.743c-0.416-0.233-0.742-0.565-0.979-0.995c-0.237-0.43-0.354-0.929-0.354-1.495
			c0-0.56,0.121-1.055,0.364-1.485s0.575-0.76,0.995-0.989c0.42-0.23,0.891-0.346,1.409-0.346c0.52,0,0.99,0.115,1.41,0.346
			c0.42,0.229,0.752,0.558,0.994,0.984c0.244,0.427,0.365,0.924,0.365,1.49s-0.125,1.065-0.375,1.495
			c-0.25,0.43-0.588,0.762-1.015,0.995s-0.899,0.35-1.421,0.35C184.517,27.093,184.051,26.977,183.634,26.743z M185.949,26.063
			c0.286-0.152,0.519-0.383,0.694-0.688c0.178-0.307,0.266-0.68,0.266-1.12s-0.087-0.813-0.26-1.12
			c-0.174-0.307-0.4-0.535-0.68-0.685c-0.281-0.15-0.584-0.226-0.91-0.226c-0.334,0-0.64,0.075-0.916,0.226
			c-0.276,0.149-0.498,0.378-0.664,0.685c-0.168,0.307-0.25,0.68-0.25,1.12c0,0.446,0.08,0.823,0.244,1.13
			c0.164,0.308,0.381,0.535,0.654,0.687c0.273,0.148,0.573,0.225,0.9,0.225C185.354,26.293,185.663,26.217,185.949,26.063z"/>
		<path fill="#041E42" d="M189.849,26.878c-0.332-0.144-0.596-0.344-0.789-0.601c-0.192-0.256-0.301-0.551-0.319-0.885h0.938
			c0.027,0.273,0.155,0.497,0.385,0.67c0.23,0.174,0.533,0.261,0.906,0.261c0.346,0,0.619-0.077,0.819-0.23s0.3-0.347,0.3-0.579
			c0-0.241-0.105-0.419-0.32-0.536c-0.213-0.116-0.543-0.231-0.99-0.345c-0.405-0.106-0.737-0.215-0.993-0.325
			c-0.257-0.109-0.478-0.273-0.66-0.489c-0.185-0.217-0.274-0.502-0.274-0.855c0-0.28,0.084-0.536,0.25-0.77
			c0.166-0.233,0.403-0.419,0.711-0.556c0.307-0.137,0.655-0.205,1.049-0.205c0.606,0,1.098,0.153,1.471,0.46s0.572,0.728,0.6,1.261
			h-0.91c-0.02-0.287-0.135-0.517-0.345-0.69c-0.21-0.173-0.491-0.26-0.845-0.26c-0.326,0-0.587,0.069-0.78,0.21
			c-0.192,0.14-0.29,0.323-0.29,0.55c0,0.18,0.059,0.328,0.176,0.445c0.117,0.116,0.264,0.21,0.439,0.279
			c0.178,0.07,0.422,0.148,0.734,0.235c0.395,0.106,0.714,0.212,0.961,0.315c0.246,0.104,0.457,0.258,0.635,0.465
			c0.176,0.206,0.268,0.477,0.275,0.811c0,0.299-0.084,0.569-0.25,0.811c-0.168,0.238-0.402,0.428-0.705,0.564
			c-0.305,0.137-0.652,0.204-1.045,0.204C190.56,27.093,190.183,27.021,189.849,26.878z"/>
		<path fill="#041E42" d="M201.049,25.453h-3.04l-0.561,1.55h-0.959l2.52-6.93h1.051l2.51,6.93h-0.961L201.049,25.453z
			 M200.788,24.713l-1.26-3.52l-1.26,3.52H200.788z"/>
		<path fill="#041E42" d="M203.698,20.453c-0.119-0.12-0.18-0.267-0.18-0.44c0-0.173,0.061-0.319,0.18-0.439
			c0.121-0.12,0.268-0.181,0.441-0.181c0.166,0,0.308,0.061,0.424,0.181c0.117,0.12,0.176,0.267,0.176,0.439
			c0,0.174-0.059,0.32-0.176,0.44c-0.116,0.12-0.258,0.18-0.424,0.18C203.966,20.633,203.819,20.573,203.698,20.453z
			 M204.579,21.522v5.48h-0.91v-5.48H204.579z"/>
		<path fill="#041E42" d="M207.724,21.683c0.297-0.173,0.658-0.26,1.086-0.26v0.94h-0.24c-1.021,0-1.53,0.553-1.53,1.659v2.98h-0.91
			v-5.48h0.91v0.891C207.198,22.1,207.427,21.856,207.724,21.683z"/>
		<path fill="#041E42" d="M214.829,24.603h-4.381c0.033,0.54,0.219,0.961,0.555,1.266c0.337,0.303,0.746,0.455,1.227,0.455
			c0.394,0,0.722-0.092,0.984-0.275c0.264-0.184,0.447-0.428,0.555-0.735h0.98c-0.146,0.527-0.439,0.956-0.881,1.286
			c-0.439,0.33-0.986,0.494-1.641,0.494c-0.521,0-0.984-0.115-1.396-0.35s-0.731-0.564-0.965-0.995
			c-0.234-0.43-0.351-0.929-0.351-1.495s0.113-1.063,0.34-1.49c0.228-0.427,0.545-0.755,0.955-0.984
			c0.41-0.23,0.881-0.346,1.416-0.346c0.521,0,0.979,0.113,1.379,0.34c0.4,0.228,0.709,0.539,0.926,0.936
			c0.217,0.396,0.324,0.845,0.324,1.345C214.858,24.227,214.849,24.409,214.829,24.603z M213.688,22.968
			c-0.153-0.25-0.361-0.439-0.625-0.57c-0.265-0.13-0.556-0.194-0.875-0.194c-0.461,0-0.853,0.146-1.176,0.439
			c-0.322,0.294-0.509,0.7-0.556,1.221h3.461C213.919,23.517,213.842,23.218,213.688,22.968z"/>
		<path fill="#041E42" d="M216.868,26.878c-0.333-0.144-0.596-0.344-0.789-0.601c-0.193-0.256-0.301-0.551-0.32-0.885h0.939
			c0.027,0.273,0.154,0.497,0.385,0.67s0.532,0.261,0.906,0.261c0.346,0,0.619-0.077,0.818-0.23c0.2-0.153,0.301-0.347,0.301-0.579
			c0-0.241-0.106-0.419-0.32-0.536c-0.213-0.116-0.543-0.231-0.99-0.345c-0.406-0.106-0.738-0.215-0.994-0.325
			c-0.257-0.109-0.477-0.273-0.66-0.489c-0.184-0.217-0.274-0.502-0.274-0.855c0-0.28,0.084-0.536,0.25-0.77
			c0.167-0.233,0.403-0.419,0.711-0.556c0.308-0.137,0.655-0.205,1.049-0.205c0.606,0,1.099,0.153,1.472,0.46s0.572,0.728,0.6,1.261
			h-0.91c-0.02-0.287-0.135-0.517-0.346-0.69c-0.209-0.173-0.49-0.26-0.844-0.26c-0.326,0-0.588,0.069-0.781,0.21
			c-0.192,0.14-0.289,0.323-0.289,0.55c0,0.18,0.059,0.328,0.176,0.445c0.115,0.116,0.263,0.21,0.439,0.279
			c0.176,0.07,0.422,0.148,0.733,0.235c0.396,0.106,0.714,0.212,0.961,0.315c0.246,0.104,0.458,0.258,0.636,0.465
			c0.176,0.206,0.268,0.477,0.274,0.811c0,0.299-0.084,0.569-0.25,0.811c-0.167,0.238-0.401,0.428-0.705,0.564
			s-0.651,0.204-1.045,0.204C217.579,27.093,217.202,27.021,216.868,26.878z"/>
	</g>
	<g enable-background="new    ">
		<g>
			<path fill="#041E42" d="M72.506,33.493c0.774,0.411,1.374,0.987,1.799,1.729c0.425,0.741,0.637,1.598,0.637,2.568
				c0,0.962-0.212,1.814-0.637,2.563c-0.425,0.746-1.027,1.326-1.806,1.735c-0.779,0.411-1.682,0.616-2.709,0.616h-3.682v-9.828
				h3.682C70.826,32.877,71.731,33.082,72.506,33.493z M71.75,39.891c0.504-0.494,0.756-1.193,0.756-2.1s-0.252-1.609-0.756-2.114
				c-0.504-0.504-1.208-0.756-2.114-0.756h-1.134v5.712h1.134C70.541,40.633,71.246,40.386,71.75,39.891z"/>
			<path fill="#041E42" d="M78.68,34.795v1.988h3.206v1.848H78.68v2.156h3.626v1.918h-6.02v-9.828h6.02v1.918H78.68z"/>
			<path fill="#041E42" d="M86.254,40.857h3.136v1.848h-5.53v-9.828h2.394V40.857z"/>
			<path fill="#041E42" d="M92.932,34.795v1.988h3.206v1.848h-3.206v2.156h3.626v1.918h-6.02v-9.828h6.02v1.918H92.932z"/>
			<path fill="#041E42" d="M104.636,35.984c-0.178-0.326-0.432-0.575-0.763-0.748c-0.332-0.174-0.721-0.26-1.169-0.26
				c-0.775,0-1.396,0.254-1.862,0.764c-0.467,0.509-0.7,1.188-0.7,2.037c0,0.904,0.245,1.611,0.735,2.121
				c0.49,0.509,1.165,0.763,2.023,0.763c0.588,0,1.085-0.149,1.491-0.448c0.406-0.299,0.702-0.729,0.889-1.288h-3.038v-1.764h5.208
				v2.226c-0.177,0.598-0.479,1.153-0.903,1.666c-0.425,0.514-0.964,0.93-1.617,1.246c-0.653,0.317-1.391,0.477-2.212,0.477
				c-0.971,0-1.836-0.213-2.597-0.637c-0.761-0.425-1.354-1.016-1.778-1.771c-0.425-0.756-0.637-1.619-0.637-2.59
				s0.212-1.838,0.637-2.598c0.424-0.761,1.015-1.354,1.771-1.777c0.756-0.426,1.619-0.639,2.59-0.639
				c1.176,0,2.167,0.285,2.975,0.854c0.807,0.569,1.341,1.358,1.603,2.366H104.636L104.636,35.984z"/>
			<path fill="#041E42" d="M108.871,42.445c-0.266-0.246-0.399-0.553-0.399-0.916c0-0.373,0.133-0.688,0.399-0.938
				s0.609-0.378,1.029-0.378c0.411,0,0.749,0.126,1.016,0.378c0.266,0.252,0.398,0.565,0.398,0.938c0,0.363-0.133,0.67-0.398,0.916
				c-0.268,0.248-0.605,0.371-1.016,0.371C109.479,42.816,109.137,42.693,108.871,42.445z"/>
			<path fill="#041E42" d="M126.825,32.877v9.828h-2.395v-5.895l-2.197,5.895h-1.933l-2.213-5.908v5.908h-2.395v-9.828h2.828
				l2.759,6.805l2.729-6.805H126.825z"/>
			<path fill="#041E42" d="M130.94,34.795v1.988h3.207v1.848h-3.207v2.156h3.627v1.918h-6.021v-9.828h6.021v1.918H130.94z"/>
			<path fill="#041E42" d="M141.133,42.705l-2.044-3.71h-0.574v3.71h-2.394v-9.828h4.019c0.773,0,1.435,0.137,1.98,0.406
				c0.546,0.271,0.954,0.642,1.225,1.113c0.271,0.471,0.406,0.996,0.406,1.573c0,0.653-0.186,1.237-0.553,1.75
				c-0.369,0.515-0.912,0.878-1.631,1.093l2.268,3.893H141.133z M138.515,37.301h1.484c0.438,0,0.768-0.105,0.986-0.32
				c0.22-0.215,0.33-0.52,0.33-0.91c0-0.373-0.11-0.668-0.33-0.883c-0.219-0.215-0.549-0.321-0.986-0.321h-1.484V37.301z"/>
			<path fill="#041E42" d="M145.474,35.18c0.42-0.76,1.006-1.353,1.756-1.777c0.752-0.424,1.604-0.637,2.556-0.637
				c1.168,0,2.166,0.309,2.996,0.924c0.831,0.615,1.387,1.457,1.666,2.521h-2.632c-0.196-0.41-0.475-0.724-0.834-0.938
				c-0.358-0.215-0.768-0.321-1.225-0.321c-0.736,0-1.335,0.257-1.792,0.77c-0.458,0.515-0.687,1.2-0.687,2.06
				s0.229,1.545,0.687,2.058c0.457,0.515,1.056,0.771,1.792,0.771c0.457,0,0.865-0.106,1.225-0.321
				c0.36-0.216,0.638-0.527,0.834-0.938h2.632c-0.279,1.064-0.835,1.902-1.666,2.514c-0.83,0.611-1.828,0.918-2.996,0.918
				c-0.951,0-1.804-0.213-2.556-0.639c-0.75-0.424-1.336-1.015-1.756-1.771s-0.631-1.619-0.631-2.59
				C144.843,36.809,145.054,35.939,145.474,35.18z"/>
			<path fill="#041E42" d="M158.312,34.795v1.988h3.205v1.848h-3.205v2.156h3.625v1.918h-6.02v-9.828h6.02v1.918H158.312z"/>
			<path fill="#041E42" d="M169.89,33.493c0.773,0.411,1.373,0.987,1.799,1.729c0.424,0.741,0.638,1.598,0.638,2.568
				c0,0.962-0.214,1.814-0.638,2.563c-0.426,0.746-1.026,1.326-1.807,1.735c-0.779,0.411-1.683,0.616-2.709,0.616h-3.682v-9.828
				h3.682C168.208,32.877,169.114,33.082,169.89,33.493z M169.132,39.891c0.506-0.494,0.758-1.193,0.758-2.1
				s-0.252-1.609-0.758-2.114c-0.504-0.504-1.208-0.756-2.113-0.756h-1.134v5.712h1.134
				C167.924,40.633,168.628,40.386,169.132,39.891z"/>
			<path fill="#041E42" d="M176.062,34.795v1.988h3.207v1.848h-3.207v2.156h3.627v1.918h-6.021v-9.828h6.021v1.918H176.062z"/>
			<path fill="#041E42" d="M182.866,42.453c-0.569-0.233-1.023-0.579-1.365-1.036c-0.34-0.457-0.52-1.008-0.539-1.651h2.549
				c0.037,0.363,0.163,0.643,0.379,0.832c0.213,0.191,0.494,0.287,0.84,0.287c0.354,0,0.635-0.08,0.84-0.244s0.308-0.391,0.308-0.68
				c0-0.242-0.081-0.443-0.244-0.602c-0.163-0.159-0.364-0.289-0.603-0.394c-0.237-0.103-0.576-0.219-1.016-0.35
				c-0.635-0.196-1.152-0.394-1.555-0.589c-0.4-0.195-0.746-0.484-1.035-0.867s-0.434-0.883-0.434-1.498
				c0-0.915,0.33-1.631,0.992-2.148c0.664-0.519,1.526-0.777,2.592-0.777c1.082,0,1.955,0.26,2.617,0.777
				c0.662,0.519,1.018,1.238,1.063,2.162h-2.59c-0.021-0.316-0.136-0.566-0.351-0.749c-0.215-0.182-0.489-0.272-0.825-0.272
				c-0.29,0-0.523,0.078-0.701,0.23c-0.177,0.154-0.267,0.376-0.267,0.665c0,0.317,0.149,0.565,0.449,0.742
				c0.297,0.178,0.764,0.369,1.398,0.574c0.635,0.215,1.15,0.42,1.547,0.616c0.396,0.194,0.74,0.479,1.029,0.854
				s0.434,0.854,0.434,1.441c0,0.561-0.143,1.068-0.426,1.525c-0.285,0.458-0.698,0.822-1.24,1.094
				c-0.541,0.271-1.18,0.404-1.918,0.404C184.079,42.803,183.437,42.688,182.866,42.453z"/>
		</g>
	</g>
</g>
<circle fill="#FFFFFF" cx="25" cy="24.999" r="22.08"/>
<circle fill="none" stroke="#041E42" stroke-miterlimit="10" cx="25" cy="24.999" r="24"/>
<g>
	<g>
		<path fill="#041E42" d="M23.105,26.485l0.015,1.82c0.109,0.043,0.242,0.046,0.35-0.005c0.157-0.081-0.033,0.039,0.057-0.041
			l0.531-0.538c0.006-0.006,0.009-0.014,0.014-0.023l0.046-0.055c0.187-0.25,0.319-1.213,0.467-1.291
			c0.098,0.049,0.104,0.016,0.096,0.338c-0.025,1.166,0.093,0.355,0.093,1.105l0.005,2.313c-0.005,0.069,0.002,0.042-0.014,0.099
			c-0.028,0.102-0.132,0.213-0.202,0.293c-0.133,0.141-0.266,0.236-0.391,0.369c-0.119,0.122-0.242,0.271-0.379,0.379
			c-0.228,0.172-0.072,0.078-0.243,0.342c-0.076,0.121-0.045-0.05-0.061,0.136c0.275,0.167,1.708,0.075,2.169,0.075
			c0.758,0,1.517,0.002,2.276,0c0.201-0.002,0.137-0.011,0.283-0.065c-0.035-0.291-0.479-0.501-0.837-0.905
			c-0.082-0.094-0.031-0.039-0.108-0.094c-0.049-0.04-0.013,0-0.058-0.045l-0.269-0.272c-0.062-0.044-0.148-0.095-0.2-0.226
			c-0.047-0.117-0.043-3.643-0.008-3.867c0.682-0.043,1.322-0.016,2.009-0.029c0.078-0.117,0.094-0.244,0.182-0.375
			c0.089-0.119,0.082-0.281,0.056-0.501c-0.053-0.437-0.361-0.339-0.808-0.339l-4.66,0.028c-0.192,0-0.404-0.034-0.509,0.072
			c-0.069,0.072-0.178,0.268-0.178,0.407c0.001,0.143,0.066,0.199,0.149,0.428C23.071,26.272,23.105,26.108,23.105,26.485"/>
	</g>
	<g>
		<path fill="#041E42" d="M29.083,24.588l-0.021,0.028c0.153-0.033,0.133-0.354,0.128-0.478c-0.007-0.173-0.021-0.392-0.113-0.482
			c-0.167-0.124-4.762-0.024-5.667-0.034c-0.257-0.002-0.394-0.188-0.514-0.388c-0.227-0.533-0.406-1.065-0.621-1.585
			c-0.108-0.258-0.16-1.308-0.039-1.594c0.308-0.748,0.424-0.537,1.209-0.537c0.464,0.002,1.316-0.06,1.714,0.047
			c0.021,0.336-0.051,1.67,0.04,1.856c0.176,0.36,0.986,0.284,1.162,0.228c0.223-0.068,0.048,0.01,0.16-0.095
			c0.118-0.114,0.122-0.159,0.122-0.159l0.021-2.19c0-0.357,0.04-0.414-0.128-0.639c-0.14-0.185-0.158-0.227-0.423-0.299
			c-0.375-0.1-0.017-0.094-0.665-0.094c-0.507,0.002-1.013,0.002-1.518,0c-0.495,0-0.99,0-1.485,0
			c-0.758,0.002-0.674,0.009-1.059,0.456c-0.089,0.101-0.36,0.589-0.392,0.723c-0.159,0.689-0.23,0.77-0.195,1.715
			c0.022,0.614,0.071,1.006,0.29,1.594c0.04,0.111,0.074,0.229,0.113,0.335l0.659,1.139c0.065,0.073,0.125,0.111,0.195,0.187
			c0.378,0.41,0.493,0.422,1.111,0.421c0.521,0,2.666,0.029,2.993-0.016c0.302-0.04,2.062-0.022,2.602-0.017
			C29.12,24.713,29.049,24.686,29.083,24.588"/>
	</g>
	<g>
		<path fill="#041E42" d="M29.095,23.163c0.085-0.144,0.146-0.472,0.094-0.698c-0.073-0.309-0.101-0.357-0.461-0.357
			c-0.752,0.001-4.675-0.016-5.074,0.021c-0.032,0.075-0.011,0.055-0.052,0.122c-0.043,0.07-0.053,0.045-0.088,0.123
			c-0.049,0.109-0.04,0.287-0.025,0.414c0.034,0.266,0.148,0.412,0.411,0.44c0.356,0.039,1.381,0.03,1.757,0.004
			c0.258-0.015,0.126-0.003,0.833-0.003C27.215,23.229,28.498,23.207,29.095,23.163"/>
	</g>
</g>
<g>
	<path fill="#22C55E" d="M45,18.1c-2.118-6.131-6.966-10.988-13.1-13.103V18.1H45z"/>
	<path fill="#22C55E" d="M18.1,18.1V4.997C11.966,7.111,7.117,11.969,5,18.1H18.1z"/>
	<path fill="#22C55E" d="M31.9,31.899v13.104c6.133-2.116,10.982-6.973,13.099-13.104H31.9z"/>
	<path fill="#22C55E" d="M5,31.899c2.117,6.132,6.966,10.988,13.099,13.104V31.899H5z"/>
</g>
</svg>
