<?xml version="1.0" encoding="utf-8"?>
<!-- Generator: Adobe Illustrator 16.0.0, SVG Export Plug-In . SVG Version: 6.00 Build 0)  -->
<!DOCTYPE svg PUBLIC "-//W3C//DTD SVG 1.1//EN" "http://www.w3.org/Graphics/SVG/1.1/DTD/svg11.dtd">
<svg version="1.1" id="Capa_1" xmlns="http://www.w3.org/2000/svg" xmlns:xlink="http://www.w3.org/1999/xlink" x="0px" y="0px"
	 width="46px" height="46px" viewBox="32.25 32.999 46 46" enable-background="new 32.25 32.999 46 46" xml:space="preserve">
<g>
	<circle fill="none" stroke="#FFFFFF" stroke-miterlimit="10" cx="55.25" cy="55.999" r="22.5"/>
	<g>
		<g>
			<path fill="#FFFFFF" d="M53.473,57.395l0.015,1.707c0.101,0.036,0.226,0.043,0.328-0.009c0.146-0.072-0.032,0.037,0.052-0.034
				l0.499-0.508c0.005-0.004,0.007-0.011,0.011-0.02l0.044-0.055c0.174-0.233,0.3-1.134,0.438-1.208
				c0.092,0.046,0.098,0.014,0.09,0.315c-0.023,1.095,0.087,0.336,0.087,1.039l0.004,2.167c-0.004,0.068,0.004,0.04-0.011,0.092
				c-0.027,0.095-0.125,0.202-0.19,0.273c-0.123,0.132-0.249,0.222-0.365,0.348c-0.111,0.116-0.229,0.256-0.357,0.354
				c-0.211,0.164-0.067,0.074-0.227,0.324c-0.07,0.111-0.043-0.046-0.056,0.128c0.256,0.153,1.599,0.067,2.032,0.067
				c0.709,0,1.423,0.002,2.134,0c0.189-0.002,0.129-0.009,0.266-0.06c-0.032-0.271-0.447-0.472-0.783-0.852
				c-0.078-0.088-0.031-0.033-0.102-0.088c-0.046-0.033-0.014,0-0.053-0.042l-0.253-0.253c-0.059-0.04-0.139-0.088-0.189-0.212
				c-0.044-0.112-0.039-3.416-0.006-3.628c0.639-0.04,1.241-0.014,1.884-0.023c0.072-0.112,0.088-0.229,0.17-0.352
				c0.082-0.115,0.075-0.264,0.051-0.472c-0.049-0.407-0.336-0.317-0.756-0.317l-4.369,0.023c-0.18,0-0.381-0.027-0.478,0.07
				c-0.065,0.065-0.167,0.253-0.167,0.384c0.001,0.134,0.063,0.186,0.142,0.399C53.442,57.192,53.473,57.041,53.473,57.395"/>
		</g>
		<g>
			<path fill="#FFFFFF" d="M59.078,55.612l-0.019,0.028c0.145-0.032,0.125-0.334,0.122-0.446c-0.006-0.163-0.021-0.37-0.107-0.456
				c-0.156-0.112-4.463-0.021-5.314-0.028c-0.241-0.002-0.369-0.176-0.481-0.366c-0.211-0.498-0.38-0.996-0.582-1.481
				c-0.102-0.244-0.151-1.227-0.038-1.494c0.288-0.702,0.397-0.506,1.134-0.506c0.433,0.002,1.233-0.055,1.607,0.044
				c0.02,0.314-0.047,1.568,0.036,1.742c0.167,0.335,0.927,0.265,1.09,0.214c0.21-0.068,0.045,0.009,0.15-0.089
				c0.11-0.11,0.114-0.152,0.114-0.152l0.021-2.055c0-0.332,0.038-0.384-0.119-0.595c-0.131-0.174-0.149-0.214-0.399-0.284
				c-0.352-0.094-0.014-0.088-0.622-0.088c-0.473,0.002-0.949,0.002-1.424,0c-0.464,0-0.927,0-1.392,0
				c-0.71,0.002-0.633,0.013-0.992,0.428c-0.083,0.096-0.339,0.556-0.367,0.682c-0.15,0.643-0.216,0.721-0.183,1.605
				c0.021,0.575,0.066,0.945,0.271,1.493c0.039,0.107,0.069,0.216,0.107,0.313l0.617,1.071c0.062,0.065,0.116,0.103,0.182,0.175
				c0.354,0.381,0.462,0.396,1.043,0.395c0.489,0,2.5,0.024,2.807-0.018c0.28-0.038,1.931-0.02,2.437-0.015
				C59.113,55.731,59.047,55.704,59.078,55.612"/>
		</g>
		<g>
			<path fill="#FFFFFF" d="M59.09,54.278c0.078-0.134,0.136-0.441,0.088-0.653c-0.068-0.293-0.096-0.338-0.433-0.338
				c-0.705,0-4.382-0.014-4.756,0.022c-0.032,0.067-0.011,0.05-0.05,0.111c-0.041,0.068-0.049,0.043-0.08,0.118
				c-0.046,0.102-0.038,0.268-0.023,0.39c0.03,0.25,0.139,0.387,0.384,0.411c0.333,0.036,1.294,0.028,1.647,0.002
				c0.242-0.012,0.117-0.002,0.782-0.002C57.328,54.338,58.529,54.32,59.09,54.278"/>
		</g>
	</g>
	<g>
		<path fill="#FFFFFF" d="M74,49.532c-1.985-5.749-6.531-10.305-12.282-12.286v12.286H74z"/>
		<path fill="#FFFFFF" d="M48.782,49.532V37.246c-5.75,1.981-10.297,6.537-12.281,12.286H48.782z"/>
		<path fill="#FFFFFF" d="M61.718,62.468v12.287c5.75-1.983,10.296-6.538,12.281-12.287H61.718z"/>
		<path fill="#FFFFFF" d="M36.5,62.468c1.985,5.749,6.531,10.304,12.281,12.287V62.468H36.5z"/>
	</g>
</g>
</svg>
