<?xml version="1.0" encoding="utf-8"?>
<!-- Generator: Adobe Illustrator 16.0.0, SVG Export Plug-In . SVG Version: 6.00 Build 0)  -->
<!DOCTYPE svg PUBLIC "-//W3C//DTD SVG 1.1//EN" "http://www.w3.org/Graphics/SVG/1.1/DTD/svg11.dtd">
<svg version="1.1" id="Capa_1" xmlns="http://www.w3.org/2000/svg" xmlns:xlink="http://www.w3.org/1999/xlink" x="0px" y="0px"
	 width="160px" height="96px" viewBox="20 6 160 96" enable-background="new 20 6 160 96" xml:space="preserve">
<g>
	<g enable-background="new    ">
		<path fill="#041E42" d="M35.054,67.175c0.307-0.543,0.725-0.968,1.255-1.273c0.53-0.307,1.118-0.461,1.765-0.461
			c0.76,0,1.423,0.184,1.99,0.551c0.567,0.365,0.98,0.887,1.24,1.561h-1.09c-0.193-0.421-0.472-0.744-0.835-0.971
			c-0.363-0.227-0.798-0.34-1.305-0.34c-0.487,0-0.924,0.113-1.31,0.34c-0.387,0.227-0.69,0.549-0.91,0.965
			c-0.22,0.417-0.33,0.905-0.33,1.465c0,0.555,0.11,1.039,0.33,1.455c0.22,0.417,0.523,0.738,0.91,0.965
			c0.386,0.228,0.823,0.34,1.31,0.34c0.506,0,0.941-0.11,1.305-0.334c0.363-0.224,0.642-0.545,0.835-0.965h1.09
			c-0.26,0.666-0.673,1.182-1.24,1.545c-0.566,0.363-1.23,0.545-1.99,0.545c-0.647,0-1.235-0.151-1.765-0.455
			c-0.53-0.303-0.948-0.726-1.255-1.266c-0.307-0.539-0.46-1.148-0.46-1.83C34.594,68.33,34.749,67.72,35.054,67.175z"/>
		<path fill="#041E42" d="M43.649,72.24c-0.417-0.233-0.744-0.565-0.98-0.995c-0.237-0.43-0.355-0.93-0.355-1.495
			c0-0.56,0.122-1.055,0.365-1.485c0.243-0.43,0.575-0.76,0.995-0.988c0.42-0.23,0.89-0.346,1.41-0.346s0.99,0.114,1.41,0.346
			c0.42,0.229,0.751,0.558,0.995,0.984c0.244,0.426,0.365,0.924,0.365,1.489s-0.125,1.065-0.375,1.495
			c-0.25,0.43-0.589,0.762-1.015,0.995c-0.427,0.233-0.9,0.35-1.42,0.35C44.53,72.59,44.066,72.474,43.649,72.24z M45.964,71.56
			c0.287-0.152,0.518-0.383,0.695-0.688c0.177-0.306,0.265-0.681,0.265-1.12s-0.087-0.813-0.26-1.12
			c-0.173-0.307-0.4-0.534-0.68-0.685c-0.28-0.15-0.583-0.227-0.91-0.227c-0.333,0-0.638,0.075-0.915,0.227
			c-0.277,0.148-0.499,0.378-0.665,0.685c-0.166,0.308-0.25,0.681-0.25,1.12c0,0.446,0.082,0.823,0.245,1.13
			c0.163,0.308,0.381,0.535,0.655,0.687c0.273,0.148,0.574,0.225,0.9,0.225C45.37,71.79,45.677,71.714,45.964,71.56z"/>
		<path fill="#041E42" d="M49.965,65.101V72.5h-0.91v-7.399H49.965z"/>
		<path fill="#041E42" d="M56.485,70.101h-4.381c0.033,0.539,0.219,0.961,0.555,1.266c0.336,0.303,0.746,0.455,1.226,0.455
			c0.394,0,0.722-0.092,0.985-0.275c0.263-0.184,0.447-0.428,0.555-0.734h0.98c-0.147,0.526-0.44,0.955-0.881,1.285
			c-0.439,0.33-0.985,0.494-1.64,0.494c-0.521,0-0.985-0.115-1.396-0.35c-0.409-0.233-0.731-0.564-0.965-0.995
			c-0.232-0.431-0.35-0.929-0.35-1.495s0.113-1.063,0.34-1.49c0.227-0.427,0.545-0.755,0.955-0.983
			c0.41-0.23,0.881-0.347,1.415-0.347c0.521,0,0.979,0.113,1.38,0.34c0.4,0.229,0.708,0.539,0.926,0.937
			c0.217,0.396,0.324,0.845,0.324,1.345C56.514,69.724,56.504,69.906,56.485,70.101z M55.344,68.465
			c-0.152-0.25-0.361-0.438-0.625-0.569s-0.555-0.194-0.875-0.194c-0.46,0-0.852,0.146-1.175,0.438
			c-0.323,0.295-0.509,0.7-0.556,1.222h3.461C55.575,69.015,55.498,68.715,55.344,68.465z"/>
		<path fill="#041E42" d="M61.219,67.24c0.355,0.206,0.622,0.467,0.795,0.778v-1h0.92v5.602c0,0.5-0.107,0.945-0.32,1.335
			s-0.519,0.694-0.914,0.915c-0.396,0.22-0.858,0.33-1.385,0.33c-0.721,0-1.32-0.17-1.801-0.51c-0.48-0.342-0.763-0.805-0.85-1.392
			h0.9c0.1,0.333,0.307,0.603,0.619,0.806c0.313,0.203,0.69,0.306,1.131,0.306c0.5,0,0.907-0.157,1.225-0.47
			c0.316-0.313,0.475-0.754,0.475-1.32v-1.15c-0.18,0.32-0.447,0.588-0.8,0.801c-0.354,0.213-0.767,0.319-1.24,0.319
			c-0.485,0-0.928-0.12-1.325-0.358c-0.396-0.24-0.707-0.577-0.935-1.012c-0.228-0.433-0.34-0.927-0.34-1.479
			c0-0.561,0.112-1.053,0.34-1.477c0.228-0.422,0.538-0.75,0.935-0.983s0.838-0.351,1.325-0.351
			C60.448,66.931,60.862,67.033,61.219,67.24z M61.764,68.67c-0.167-0.307-0.392-0.541-0.675-0.705
			c-0.284-0.163-0.595-0.245-0.935-0.245s-0.65,0.08-0.931,0.24s-0.503,0.395-0.67,0.7s-0.25,0.667-0.25,1.08
			c0,0.42,0.083,0.784,0.25,1.095s0.39,0.547,0.67,0.71s0.591,0.245,0.931,0.245s0.65-0.082,0.935-0.245
			c0.283-0.163,0.508-0.399,0.675-0.71s0.25-0.672,0.25-1.085S61.93,68.976,61.764,68.67z"/>
		<path fill="#041E42" d="M64.504,65.95c-0.12-0.12-0.18-0.268-0.18-0.439c0-0.174,0.06-0.32,0.18-0.439
			c0.12-0.12,0.268-0.182,0.439-0.182c0.168,0,0.309,0.062,0.426,0.182c0.117,0.119,0.175,0.267,0.175,0.439
			c0,0.174-0.058,0.319-0.175,0.439s-0.258,0.18-0.426,0.18C64.77,66.13,64.625,66.07,64.504,65.95z M65.384,67.019v5.48h-0.91
			v-5.48H65.384z"/>
		<path fill="#041E42" d="M67.929,72.24c-0.417-0.233-0.743-0.565-0.979-0.995c-0.237-0.43-0.355-0.93-0.355-1.495
			c0-0.56,0.122-1.055,0.365-1.485c0.242-0.43,0.574-0.76,0.994-0.988c0.421-0.23,0.891-0.346,1.41-0.346
			c0.521,0,0.99,0.114,1.41,0.346c0.42,0.229,0.752,0.558,0.996,0.984c0.242,0.426,0.364,0.924,0.364,1.489
			s-0.125,1.065-0.375,1.495s-0.589,0.762-1.015,0.995c-0.428,0.233-0.9,0.35-1.42,0.35C68.811,72.59,68.345,72.474,67.929,72.24z
			 M70.245,71.56c0.287-0.152,0.518-0.383,0.695-0.688c0.176-0.306,0.265-0.681,0.265-1.12s-0.087-0.813-0.261-1.12
			c-0.172-0.307-0.399-0.534-0.68-0.685c-0.279-0.15-0.583-0.227-0.91-0.227c-0.332,0-0.638,0.075-0.914,0.227
			c-0.277,0.148-0.5,0.378-0.666,0.685c-0.166,0.308-0.25,0.681-0.25,1.12c0,0.446,0.082,0.823,0.246,1.13
			c0.162,0.308,0.381,0.535,0.654,0.687c0.273,0.148,0.574,0.225,0.9,0.225C69.651,71.79,69.958,71.714,70.245,71.56z"/>
		<path fill="#041E42" d="M76.004,68.265c0.227-0.423,0.538-0.75,0.936-0.983c0.396-0.233,0.84-0.351,1.334-0.351
			c0.428,0,0.823,0.099,1.19,0.295c0.366,0.196,0.646,0.455,0.84,0.774v-2.899h0.92V72.5h-0.92v-1.03
			c-0.18,0.327-0.446,0.596-0.801,0.807c-0.353,0.21-0.767,0.313-1.24,0.313c-0.485,0-0.928-0.12-1.325-0.358
			c-0.396-0.24-0.707-0.577-0.935-1.012c-0.228-0.433-0.34-0.927-0.34-1.479C75.665,69.181,75.778,68.688,76.004,68.265z
			 M80.054,68.67c-0.167-0.307-0.394-0.541-0.675-0.705c-0.284-0.163-0.596-0.245-0.936-0.245s-0.649,0.08-0.93,0.24
			c-0.279,0.16-0.503,0.395-0.67,0.7s-0.25,0.667-0.25,1.08c0,0.42,0.083,0.784,0.25,1.095s0.391,0.547,0.67,0.71
			c0.28,0.163,0.59,0.245,0.93,0.245s0.651-0.082,0.936-0.245c0.283-0.163,0.508-0.399,0.675-0.71
			c0.166-0.311,0.25-0.672,0.25-1.085S80.22,68.976,80.054,68.67z"/>
		<path fill="#041E42" d="M87.735,70.101h-4.381c0.033,0.539,0.219,0.961,0.557,1.266c0.336,0.303,0.744,0.455,1.225,0.455
			c0.393,0,0.721-0.092,0.984-0.275c0.263-0.183,0.449-0.428,0.556-0.734h0.979c-0.146,0.526-0.439,0.955-0.881,1.285
			c-0.44,0.33-0.985,0.494-1.64,0.494c-0.521,0-0.985-0.115-1.396-0.35c-0.409-0.233-0.731-0.564-0.965-0.995
			c-0.234-0.431-0.351-0.929-0.351-1.495s0.112-1.063,0.34-1.49c0.228-0.427,0.545-0.755,0.955-0.983
			c0.409-0.23,0.882-0.347,1.415-0.347c0.52,0,0.98,0.113,1.38,0.34c0.399,0.229,0.708,0.539,0.925,0.937s0.325,0.845,0.325,1.345
			C87.764,69.724,87.753,69.906,87.735,70.101z M86.594,68.465c-0.152-0.25-0.361-0.438-0.625-0.569s-0.556-0.194-0.875-0.194
			c-0.46,0-0.854,0.146-1.175,0.438c-0.324,0.295-0.509,0.7-0.556,1.222h3.459C86.823,69.015,86.748,68.715,86.594,68.465z"/>
		<path fill="#041E42" d="M95.574,65.53v0.738h-3.029v2.352h2.459v0.74h-2.459v3.14h-0.91v-6.97H95.574z"/>
		<path fill="#041E42" d="M96.673,68.265c0.227-0.423,0.539-0.75,0.936-0.983c0.397-0.233,0.838-0.351,1.324-0.351
			c0.48,0,0.897,0.104,1.25,0.311c0.354,0.206,0.618,0.467,0.792,0.779v-1h0.92V72.5h-0.92v-1.021
			c-0.18,0.319-0.449,0.586-0.805,0.795c-0.357,0.211-0.771,0.314-1.246,0.314c-0.486,0-0.926-0.119-1.318-0.359
			c-0.395-0.239-0.705-0.576-0.932-1.01s-0.34-0.928-0.34-1.479C96.333,69.181,96.447,68.688,96.673,68.265z M100.725,68.67
			c-0.168-0.307-0.393-0.541-0.676-0.705c-0.283-0.163-0.596-0.245-0.936-0.245s-0.648,0.08-0.931,0.24
			c-0.278,0.16-0.503,0.395-0.67,0.7c-0.166,0.307-0.25,0.667-0.25,1.08c0,0.42,0.084,0.784,0.25,1.095
			c0.167,0.311,0.392,0.547,0.67,0.71c0.281,0.163,0.591,0.245,0.931,0.245s0.651-0.082,0.936-0.245s0.508-0.399,0.676-0.71
			c0.166-0.311,0.25-0.672,0.25-1.085S100.891,68.976,100.725,68.67z"/>
		<path fill="#041E42" d="M105.029,67.181c0.297-0.174,0.658-0.261,1.086-0.261v0.94h-0.24c-1.021,0-1.531,0.553-1.531,1.658v2.98
			h-0.908v-5.48h0.908v0.892C104.504,67.597,104.732,67.353,105.029,67.181z"/>
		<path fill="#041E42" d="M114.895,67.185c0.334,0.178,0.596,0.442,0.789,0.797c0.193,0.353,0.291,0.783,0.291,1.289V72.5h-0.9
			v-3.101c0-0.547-0.135-0.965-0.404-1.256c-0.271-0.289-0.635-0.435-1.096-0.435c-0.475,0-0.85,0.151-1.131,0.455
			c-0.279,0.304-0.42,0.741-0.42,1.315v3.02h-0.9v-3.1c0-0.547-0.135-0.967-0.404-1.256s-0.635-0.436-1.096-0.436
			c-0.473,0-0.85,0.15-1.129,0.455c-0.281,0.304-0.42,0.741-0.42,1.314v3.021h-0.91v-5.479h0.91v0.789
			c0.18-0.285,0.422-0.506,0.725-0.658c0.305-0.153,0.639-0.23,1.006-0.23c0.459,0,0.865,0.104,1.219,0.311s0.617,0.511,0.791,0.91
			c0.152-0.387,0.406-0.688,0.76-0.899c0.354-0.214,0.746-0.32,1.18-0.32C114.18,66.92,114.561,67.009,114.895,67.185z"/>
		<path fill="#041E42" d="M117.465,68.265c0.227-0.423,0.537-0.75,0.936-0.983c0.395-0.233,0.838-0.351,1.324-0.351
			c0.479,0,0.896,0.104,1.25,0.311c0.354,0.206,0.615,0.467,0.789,0.779v-1h0.922V72.5h-0.922v-1.021
			c-0.18,0.319-0.447,0.586-0.805,0.795c-0.355,0.211-0.771,0.314-1.244,0.314c-0.486,0-0.928-0.119-1.32-0.359
			c-0.395-0.239-0.703-0.576-0.93-1.01s-0.34-0.928-0.34-1.479C117.125,69.181,117.238,68.688,117.465,68.265z M121.514,68.67
			c-0.166-0.307-0.391-0.541-0.674-0.705c-0.285-0.163-0.596-0.245-0.936-0.245s-0.65,0.08-0.932,0.24
			c-0.279,0.16-0.504,0.395-0.67,0.7c-0.166,0.307-0.25,0.667-0.25,1.08c0,0.42,0.084,0.784,0.25,1.095s0.391,0.547,0.67,0.71
			s0.592,0.245,0.932,0.245s0.65-0.082,0.936-0.245c0.283-0.163,0.508-0.399,0.674-0.71s0.25-0.672,0.25-1.085
			S121.68,68.976,121.514,68.67z"/>
		<path fill="#041E42" d="M124.225,68.265c0.227-0.423,0.541-0.75,0.943-0.983c0.404-0.233,0.865-0.351,1.387-0.351
			c0.674,0,1.229,0.164,1.664,0.489c0.438,0.327,0.727,0.78,0.865,1.36h-0.98c-0.094-0.334-0.273-0.598-0.545-0.79
			c-0.27-0.193-0.604-0.29-1.004-0.29c-0.521,0-0.939,0.179-1.262,0.535c-0.318,0.355-0.479,0.861-0.479,1.515
			c0,0.66,0.16,1.17,0.479,1.53c0.32,0.359,0.74,0.54,1.262,0.54c0.398,0,0.732-0.095,1-0.28c0.266-0.188,0.449-0.453,0.549-0.8
			h0.98c-0.146,0.56-0.439,1.008-0.881,1.345s-0.99,0.505-1.648,0.505c-0.521,0-0.982-0.116-1.387-0.35
			c-0.404-0.234-0.717-0.563-0.943-0.99s-0.34-0.927-0.34-1.5C123.885,69.185,123.998,68.688,124.225,68.265z"/>
		<path fill="#041E42" d="M135.264,70.101h-4.381c0.033,0.539,0.219,0.961,0.557,1.266c0.336,0.303,0.744,0.455,1.225,0.455
			c0.393,0,0.721-0.092,0.984-0.275c0.264-0.183,0.449-0.428,0.557-0.734h0.979c-0.146,0.526-0.439,0.955-0.881,1.285
			c-0.439,0.33-0.984,0.494-1.639,0.494c-0.52,0-0.986-0.115-1.395-0.35c-0.41-0.233-0.732-0.564-0.967-0.995
			s-0.35-0.929-0.35-1.495s0.113-1.063,0.34-1.49c0.227-0.427,0.545-0.755,0.955-0.983c0.408-0.23,0.881-0.347,1.414-0.347
			c0.52,0,0.98,0.113,1.381,0.34c0.398,0.229,0.707,0.539,0.924,0.937s0.326,0.845,0.326,1.345
			C135.293,69.724,135.283,69.906,135.264,70.101z M134.123,68.465c-0.152-0.25-0.361-0.438-0.625-0.569s-0.555-0.194-0.875-0.194
			c-0.459,0-0.852,0.146-1.174,0.438c-0.324,0.295-0.51,0.7-0.555,1.222h3.459C134.354,69.015,134.277,68.715,134.123,68.465z
			 M133.604,65.47l-2.129,1.142v-0.681l2.129-1.25V65.47z"/>
		<path fill="#041E42" d="M141.354,67.019v5.48h-0.908v-0.811c-0.174,0.279-0.416,0.498-0.727,0.654
			c-0.311,0.157-0.65,0.235-1.023,0.235c-0.428,0-0.811-0.088-1.15-0.265c-0.34-0.178-0.607-0.442-0.805-0.797
			c-0.197-0.353-0.295-0.783-0.295-1.289v-3.209h0.898v3.092c0,0.539,0.137,0.955,0.41,1.244s0.646,0.436,1.119,0.436
			c0.488,0,0.871-0.15,1.15-0.45s0.42-0.735,0.42-1.31v-3.012H141.354z"/>
		<path fill="#041E42" d="M144.004,67.769v3.23c0,0.268,0.057,0.455,0.17,0.564s0.311,0.166,0.59,0.166h0.67v0.77h-0.818
			c-0.508,0-0.887-0.116-1.141-0.35s-0.381-0.617-0.381-1.15v-3.23h-0.711v-0.75h0.711V65.64h0.91v1.379h1.43v0.75H144.004z"/>
		<path fill="#041E42" d="M146.564,65.95c-0.119-0.12-0.18-0.268-0.18-0.439c0-0.174,0.061-0.32,0.18-0.439
			c0.119-0.12,0.266-0.182,0.439-0.182c0.166,0,0.309,0.062,0.426,0.182c0.115,0.119,0.174,0.267,0.174,0.439
			c0,0.174-0.059,0.319-0.174,0.439c-0.117,0.12-0.26,0.18-0.426,0.18C146.83,66.13,146.684,66.07,146.564,65.95z M147.445,67.019
			v5.48h-0.91v-5.48H147.445z"/>
		<path fill="#041E42" d="M148.994,68.265c0.227-0.423,0.541-0.75,0.943-0.983s0.865-0.351,1.387-0.351
			c0.672,0,1.227,0.164,1.664,0.489c0.438,0.327,0.725,0.78,0.865,1.36h-0.98c-0.094-0.334-0.275-0.598-0.545-0.79
			c-0.271-0.193-0.605-0.29-1.004-0.29c-0.521,0-0.941,0.179-1.262,0.535c-0.318,0.355-0.479,0.861-0.479,1.515
			c0,0.66,0.16,1.17,0.479,1.53c0.32,0.359,0.74,0.54,1.262,0.54c0.398,0,0.73-0.095,1-0.28c0.266-0.188,0.449-0.453,0.549-0.8h0.98
			c-0.146,0.56-0.439,1.008-0.881,1.345s-0.99,0.505-1.648,0.505c-0.521,0-0.982-0.116-1.387-0.35
			c-0.404-0.234-0.719-0.563-0.943-0.99c-0.227-0.427-0.34-0.927-0.34-1.5C148.654,69.185,148.768,68.688,148.994,68.265z"/>
		<path fill="#041E42" d="M156.059,72.24c-0.416-0.233-0.742-0.565-0.979-0.995c-0.238-0.43-0.355-0.93-0.355-1.495
			c0-0.56,0.121-1.055,0.365-1.485c0.242-0.43,0.574-0.76,0.994-0.988c0.42-0.23,0.891-0.346,1.41-0.346s0.99,0.114,1.41,0.346
			c0.42,0.229,0.752,0.558,0.994,0.984c0.244,0.426,0.365,0.924,0.365,1.489s-0.125,1.065-0.375,1.495s-0.588,0.762-1.016,0.995
			c-0.426,0.233-0.898,0.35-1.42,0.35C156.941,72.59,156.475,72.474,156.059,72.24z M158.373,71.56
			c0.287-0.152,0.52-0.383,0.695-0.688c0.178-0.308,0.266-0.681,0.266-1.12s-0.088-0.813-0.26-1.12
			c-0.174-0.307-0.4-0.534-0.68-0.685c-0.281-0.15-0.584-0.227-0.91-0.227c-0.334,0-0.641,0.075-0.916,0.227
			c-0.277,0.148-0.498,0.378-0.664,0.685c-0.168,0.308-0.25,0.681-0.25,1.12c0,0.446,0.08,0.823,0.244,1.13
			c0.164,0.308,0.381,0.535,0.654,0.687c0.273,0.148,0.572,0.225,0.9,0.225C157.779,71.79,158.088,71.714,158.373,71.56z"/>
		<path fill="#041E42" d="M162.273,72.375c-0.332-0.144-0.596-0.344-0.789-0.601c-0.193-0.256-0.301-0.551-0.32-0.885h0.939
			c0.027,0.272,0.154,0.496,0.385,0.67s0.533,0.261,0.906,0.261c0.346,0,0.619-0.077,0.818-0.23
			c0.201-0.153,0.301-0.347,0.301-0.579c0-0.24-0.105-0.419-0.32-0.535c-0.213-0.117-0.543-0.231-0.99-0.346
			c-0.406-0.105-0.738-0.215-0.994-0.324s-0.477-0.273-0.66-0.49s-0.273-0.502-0.273-0.854c0-0.28,0.084-0.536,0.25-0.771
			c0.166-0.232,0.402-0.418,0.711-0.555c0.307-0.138,0.654-0.205,1.049-0.205c0.605,0,1.098,0.152,1.471,0.459
			c0.373,0.308,0.572,0.729,0.6,1.262h-0.91c-0.02-0.287-0.135-0.518-0.346-0.69c-0.209-0.173-0.49-0.26-0.844-0.26
			c-0.326,0-0.588,0.069-0.781,0.21c-0.191,0.141-0.289,0.322-0.289,0.55c0,0.181,0.059,0.328,0.176,0.445
			c0.117,0.116,0.264,0.21,0.439,0.278c0.178,0.07,0.422,0.148,0.734,0.235c0.395,0.106,0.713,0.212,0.961,0.315
			c0.246,0.104,0.457,0.258,0.635,0.465c0.176,0.206,0.268,0.477,0.275,0.811c0,0.299-0.084,0.569-0.25,0.811
			c-0.168,0.238-0.402,0.428-0.705,0.564c-0.305,0.137-0.652,0.204-1.045,0.204C162.984,72.59,162.607,72.519,162.273,72.375z"/>
	</g>
	<g enable-background="new    ">
		<path fill="#041E42" d="M23.175,80.265c0.227-0.423,0.538-0.75,0.935-0.983c0.396-0.233,0.841-0.351,1.335-0.351
			c0.427,0,0.823,0.099,1.19,0.295c0.367,0.196,0.646,0.455,0.84,0.774v-2.899h0.92V84.5h-0.92v-1.03
			c-0.18,0.327-0.447,0.596-0.8,0.807c-0.354,0.21-0.767,0.313-1.24,0.313c-0.486,0-0.928-0.12-1.325-0.358
			c-0.397-0.24-0.708-0.577-0.935-1.012c-0.227-0.433-0.34-0.927-0.34-1.479C22.835,81.181,22.949,80.688,23.175,80.265z
			 M27.225,80.67c-0.167-0.307-0.392-0.541-0.675-0.705c-0.284-0.163-0.595-0.245-0.935-0.245c-0.34,0-0.65,0.08-0.93,0.24
			s-0.503,0.395-0.67,0.7s-0.25,0.667-0.25,1.08c0,0.42,0.083,0.784,0.25,1.095s0.39,0.547,0.67,0.71s0.59,0.245,0.93,0.245
			c0.34,0,0.651-0.082,0.935-0.245c0.283-0.163,0.508-0.399,0.675-0.71s0.25-0.672,0.25-1.085S27.392,80.976,27.225,80.67z"/>
		<path fill="#041E42" d="M34.905,82.101h-4.38c0.033,0.539,0.218,0.961,0.555,1.266c0.336,0.303,0.745,0.455,1.225,0.455
			c0.393,0,0.721-0.092,0.985-0.275c0.263-0.184,0.448-0.428,0.555-0.734h0.98c-0.147,0.526-0.44,0.955-0.88,1.285
			c-0.44,0.33-0.986,0.494-1.64,0.494c-0.52,0-0.985-0.115-1.395-0.35c-0.41-0.233-0.732-0.564-0.965-0.995
			c-0.233-0.431-0.35-0.929-0.35-1.495s0.113-1.063,0.34-1.49c0.227-0.427,0.545-0.755,0.955-0.983
			c0.41-0.23,0.881-0.347,1.415-0.347c0.52,0,0.98,0.113,1.38,0.34c0.4,0.229,0.708,0.539,0.925,0.937
			c0.217,0.396,0.325,0.845,0.325,1.345C34.935,81.724,34.925,81.906,34.905,82.101z M33.765,80.465
			c-0.153-0.25-0.362-0.438-0.625-0.569c-0.264-0.131-0.555-0.194-0.875-0.194c-0.46,0-0.852,0.146-1.175,0.438
			c-0.323,0.295-0.508,0.7-0.555,1.222h3.46C33.995,81.015,33.918,80.715,33.765,80.465z"/>
		<path fill="#041E42" d="M39.715,77.101V84.5h-0.909v-7.399H39.715z"/>
		<path fill="#041E42" d="M41.265,80.265c0.228-0.423,0.539-0.75,0.936-0.983s0.838-0.351,1.324-0.351
			c0.48,0,0.897,0.104,1.25,0.311c0.354,0.206,0.617,0.467,0.791,0.779v-1h0.92V84.5h-0.92v-1.021
			c-0.18,0.319-0.448,0.586-0.805,0.795c-0.357,0.211-0.772,0.314-1.246,0.314c-0.486,0-0.927-0.119-1.32-0.359
			c-0.393-0.239-0.703-0.576-0.93-1.01s-0.34-0.928-0.34-1.479C40.925,81.181,41.039,80.688,41.265,80.265z M45.315,80.67
			c-0.168-0.307-0.393-0.541-0.676-0.705c-0.283-0.163-0.595-0.245-0.935-0.245s-0.649,0.08-0.931,0.24
			c-0.279,0.16-0.502,0.395-0.67,0.7c-0.166,0.306-0.25,0.667-0.25,1.08c0,0.42,0.084,0.784,0.25,1.095
			c0.168,0.311,0.391,0.547,0.67,0.71c0.281,0.163,0.591,0.245,0.931,0.245s0.651-0.082,0.935-0.245s0.508-0.399,0.676-0.71
			c0.166-0.311,0.25-0.672,0.25-1.085S45.481,80.976,45.315,80.67z"/>
		<path fill="#041E42" d="M54.761,81.015c-0.396,0.385-1.002,0.575-1.815,0.575h-1.341v2.91h-0.909v-6.97h2.25
			c0.786,0,1.385,0.189,1.795,0.568c0.409,0.381,0.614,0.871,0.614,1.472C55.354,80.149,55.156,80.632,54.761,81.015z
			 M54.065,80.511c0.24-0.221,0.359-0.533,0.359-0.939c0-0.86-0.494-1.29-1.479-1.29h-1.341v2.56h1.341
			C53.451,80.84,53.825,80.729,54.065,80.511z"/>
		<path fill="#041E42" d="M58.08,79.181c0.296-0.174,0.658-0.261,1.085-0.261v0.94h-0.24c-1.02,0-1.529,0.553-1.529,1.658v2.98
			h-0.91v-5.48h0.91v0.892C57.556,79.597,57.783,79.353,58.08,79.181z"/>
		<path fill="#041E42" d="M61.21,84.24c-0.417-0.233-0.744-0.565-0.98-0.995s-0.354-0.93-0.354-1.495
			c0-0.56,0.122-1.055,0.365-1.485c0.243-0.43,0.575-0.76,0.995-0.988c0.42-0.23,0.89-0.346,1.41-0.346
			c0.52,0,0.99,0.114,1.41,0.346c0.42,0.229,0.75,0.558,0.994,0.984c0.243,0.426,0.365,0.924,0.365,1.489s-0.125,1.065-0.375,1.495
			s-0.589,0.762-1.016,0.995c-0.426,0.233-0.899,0.35-1.42,0.35C62.091,84.59,61.626,84.474,61.21,84.24z M63.524,83.56
			c0.287-0.152,0.519-0.383,0.695-0.688c0.178-0.306,0.266-0.681,0.266-1.12s-0.088-0.813-0.26-1.12
			c-0.174-0.307-0.4-0.534-0.681-0.685s-0.583-0.227-0.909-0.227c-0.334,0-0.639,0.075-0.916,0.227
			c-0.277,0.148-0.498,0.378-0.664,0.685c-0.166,0.308-0.25,0.681-0.25,1.12c0,0.446,0.082,0.823,0.244,1.13
			c0.163,0.308,0.381,0.535,0.655,0.687c0.272,0.148,0.574,0.225,0.899,0.225C62.931,83.79,63.238,83.714,63.524,83.56z"/>
		<path fill="#041E42" d="M68.654,83.66l1.7-4.642h0.97l-2.149,5.48h-1.06l-2.15-5.48h0.98L68.654,83.66z"/>
		<path fill="#041E42" d="M72.254,77.95c-0.118-0.12-0.18-0.268-0.18-0.439c0-0.174,0.062-0.32,0.18-0.439
			c0.121-0.12,0.269-0.182,0.441-0.182c0.165,0,0.308,0.062,0.424,0.182c0.116,0.119,0.176,0.267,0.176,0.439
			c0,0.174-0.06,0.319-0.176,0.439s-0.259,0.18-0.424,0.18C72.521,78.13,72.375,78.07,72.254,77.95z M73.136,79.019v5.48h-0.91
			v-5.48H73.136z"/>
		<path fill="#041E42" d="M78.975,79.524c0.414,0.404,0.621,0.984,0.621,1.744v3.23h-0.9v-3.1c0-0.547-0.137-0.967-0.409-1.256
			s-0.646-0.436-1.121-0.436c-0.479,0-0.861,0.15-1.145,0.45c-0.285,0.3-0.426,0.735-0.426,1.31v3.03h-0.91v-5.479h0.91v0.779
			c0.18-0.279,0.426-0.496,0.735-0.648c0.31-0.153,0.649-0.23,1.024-0.23C78.021,78.92,78.561,79.122,78.975,79.524z"/>
		<path fill="#041E42" d="M81.084,80.265c0.227-0.423,0.542-0.75,0.945-0.983c0.402-0.233,0.865-0.351,1.385-0.351
			c0.674,0,1.229,0.164,1.666,0.489c0.436,0.327,0.725,0.78,0.863,1.36h-0.979c-0.094-0.334-0.275-0.598-0.545-0.79
			c-0.271-0.193-0.605-0.29-1.006-0.29c-0.52,0-0.939,0.179-1.26,0.535c-0.321,0.355-0.48,0.861-0.48,1.515
			c0,0.66,0.16,1.17,0.48,1.53c0.32,0.359,0.74,0.54,1.26,0.54c0.4,0,0.734-0.095,1-0.28c0.268-0.188,0.45-0.453,0.551-0.8h0.979
			c-0.146,0.56-0.439,1.008-0.879,1.345c-0.44,0.337-0.99,0.505-1.65,0.505c-0.52,0-0.98-0.116-1.385-0.35
			c-0.404-0.234-0.719-0.563-0.945-0.99s-0.34-0.927-0.34-1.5C80.744,81.185,80.857,80.688,81.084,80.265z"/>
		<path fill="#041E42" d="M87.184,77.95c-0.119-0.12-0.18-0.268-0.18-0.439c0-0.174,0.061-0.32,0.18-0.439
			c0.121-0.12,0.269-0.182,0.441-0.182c0.166,0,0.309,0.062,0.424,0.182c0.117,0.119,0.176,0.267,0.176,0.439
			c0,0.174-0.059,0.319-0.176,0.439c-0.115,0.12-0.258,0.18-0.424,0.18C87.451,78.13,87.305,78.07,87.184,77.95z M88.064,79.019
			v5.48h-0.91v-5.48H88.064z"/>
		<path fill="#041E42" d="M89.614,80.265c0.227-0.423,0.538-0.75,0.935-0.983c0.397-0.233,0.84-0.351,1.325-0.351
			c0.479,0,0.897,0.104,1.25,0.311c0.354,0.206,0.616,0.467,0.79,0.779v-1h0.92V84.5h-0.92v-1.021
			c-0.18,0.319-0.448,0.586-0.805,0.795c-0.357,0.211-0.771,0.314-1.245,0.314c-0.487,0-0.927-0.119-1.319-0.359
			c-0.395-0.239-0.704-0.576-0.931-1.01c-0.228-0.434-0.341-0.928-0.341-1.479C89.273,81.181,89.389,80.688,89.614,80.265z
			 M93.664,80.67c-0.166-0.307-0.393-0.541-0.675-0.705c-0.284-0.163-0.595-0.245-0.935-0.245c-0.341,0-0.65,0.08-0.932,0.24
			s-0.503,0.395-0.67,0.7s-0.25,0.667-0.25,1.08c0,0.42,0.083,0.784,0.25,1.095s0.391,0.547,0.67,0.71s0.591,0.245,0.932,0.245
			c0.34,0,0.649-0.082,0.935-0.245c0.282-0.163,0.509-0.399,0.675-0.71s0.25-0.672,0.25-1.085S93.83,80.976,93.664,80.67z"/>
		<path fill="#041E42" d="M99.045,80.265c0.227-0.423,0.537-0.75,0.936-0.983c0.396-0.233,0.841-0.351,1.334-0.351
			c0.428,0,0.824,0.099,1.189,0.295c0.367,0.196,0.646,0.455,0.84,0.774v-2.899h0.922V84.5h-0.922v-1.03
			c-0.18,0.327-0.445,0.596-0.799,0.807c-0.354,0.21-0.768,0.313-1.24,0.313c-0.486,0-0.929-0.12-1.324-0.358
			c-0.397-0.24-0.709-0.577-0.936-1.012c-0.227-0.433-0.34-0.927-0.34-1.479C98.705,81.181,98.818,80.688,99.045,80.265z
			 M103.094,80.67c-0.166-0.307-0.391-0.541-0.674-0.705c-0.283-0.163-0.596-0.245-0.936-0.245s-0.65,0.08-0.93,0.24
			c-0.281,0.16-0.504,0.395-0.67,0.7c-0.168,0.307-0.25,0.667-0.25,1.08c0,0.42,0.082,0.784,0.25,1.095
			c0.166,0.311,0.389,0.547,0.67,0.71c0.278,0.163,0.59,0.245,0.93,0.245s0.65-0.082,0.936-0.245
			c0.283-0.163,0.508-0.399,0.674-0.71c0.168-0.311,0.25-0.672,0.25-1.085S103.262,80.976,103.094,80.67z"/>
		<path fill="#041E42" d="M110.773,82.101h-4.379c0.033,0.539,0.218,0.961,0.555,1.266c0.336,0.303,0.744,0.455,1.225,0.455
			c0.395,0,0.723-0.092,0.985-0.275s0.448-0.428,0.556-0.734h0.979c-0.146,0.526-0.439,0.955-0.879,1.285
			c-0.44,0.33-0.986,0.494-1.642,0.494c-0.521,0-0.983-0.115-1.396-0.35c-0.41-0.234-0.731-0.564-0.965-0.995
			s-0.35-0.929-0.35-1.495s0.113-1.063,0.34-1.49c0.228-0.427,0.545-0.755,0.955-0.983c0.409-0.23,0.881-0.347,1.414-0.347
			c0.521,0,0.98,0.113,1.381,0.34c0.399,0.229,0.709,0.539,0.924,0.937c0.217,0.396,0.326,0.845,0.326,1.345
			C110.805,81.724,110.794,81.906,110.773,82.101z M109.635,80.465c-0.154-0.25-0.361-0.438-0.625-0.569s-0.556-0.194-0.875-0.194
			c-0.461,0-0.853,0.146-1.176,0.438c-0.322,0.295-0.508,0.7-0.555,1.222h3.46C109.864,81.015,109.787,80.715,109.635,80.465z"/>
		<path fill="#041E42" d="M118.859,81.22c0.209,0.168,0.377,0.375,0.5,0.62c0.123,0.247,0.186,0.511,0.186,0.79
			c0,0.354-0.091,0.672-0.271,0.955c-0.18,0.283-0.441,0.507-0.784,0.67s-0.749,0.245-1.216,0.245h-2.601v-6.97h2.5
			c0.474,0,0.878,0.078,1.212,0.234c0.332,0.156,0.582,0.368,0.75,0.635c0.166,0.268,0.25,0.566,0.25,0.899
			c0,0.414-0.113,0.755-0.337,1.025c-0.223,0.271-0.518,0.465-0.885,0.585C118.418,80.95,118.648,81.054,118.859,81.22z
			 M115.584,80.54h1.53c0.427,0,0.757-0.1,0.989-0.3c0.233-0.2,0.351-0.478,0.351-0.83s-0.116-0.63-0.351-0.83
			c-0.233-0.2-0.569-0.3-1.01-0.3h-1.511L115.584,80.54L115.584,80.54z M118.254,83.431c0.254-0.214,0.381-0.511,0.381-0.891
			c0-0.387-0.134-0.691-0.4-0.915c-0.266-0.224-0.622-0.335-1.069-0.335h-1.58v2.46h1.61
			C117.646,83.75,118.001,83.644,118.254,83.431z"/>
		<path fill="#041E42" d="M125.664,79.019v5.48h-0.91v-0.811c-0.174,0.279-0.414,0.498-0.725,0.654
			c-0.311,0.157-0.652,0.235-1.025,0.235c-0.426,0-0.811-0.088-1.15-0.265c-0.34-0.178-0.606-0.442-0.805-0.797
			c-0.195-0.353-0.295-0.783-0.295-1.289v-3.211h0.9v3.092c0,0.539,0.137,0.955,0.41,1.244c0.272,0.289,0.646,0.436,1.119,0.436
			c0.486,0,0.871-0.15,1.149-0.45c0.28-0.3,0.42-0.735,0.42-1.31v-3.012h0.911V79.019z"/>
		<path fill="#041E42" d="M132.174,82.101h-4.38c0.033,0.539,0.218,0.961,0.556,1.266c0.336,0.303,0.744,0.455,1.226,0.455
			c0.394,0,0.721-0.092,0.983-0.275c0.264-0.183,0.449-0.428,0.557-0.734h0.979c-0.146,0.526-0.438,0.955-0.88,1.285
			c-0.44,0.33-0.985,0.494-1.64,0.494c-0.52,0-0.985-0.115-1.395-0.35c-0.41-0.233-0.732-0.564-0.967-0.995s-0.35-0.929-0.35-1.495
			s0.113-1.063,0.34-1.49c0.227-0.427,0.545-0.755,0.955-0.983c0.408-0.23,0.882-0.347,1.415-0.347c0.521,0,0.979,0.113,1.38,0.34
			c0.398,0.229,0.708,0.539,0.925,0.937c0.218,0.397,0.325,0.845,0.325,1.345C132.204,81.724,132.193,81.906,132.174,82.101z
			 M131.034,80.465c-0.153-0.25-0.362-0.438-0.625-0.569c-0.265-0.131-0.556-0.194-0.875-0.194c-0.46,0-0.853,0.146-1.175,0.438
			c-0.324,0.295-0.51,0.7-0.555,1.222h3.459C131.264,81.015,131.188,80.715,131.034,80.465z"/>
		<path fill="#041E42" d="M137.693,79.524c0.414,0.404,0.621,0.984,0.621,1.744v3.23h-0.9v-3.1c0-0.547-0.137-0.967-0.41-1.256
			s-0.646-0.436-1.119-0.436c-0.479,0-0.863,0.15-1.146,0.45c-0.284,0.3-0.424,0.735-0.424,1.31v3.03h-0.91v-5.479h0.91v0.779
			c0.18-0.279,0.424-0.496,0.733-0.648c0.31-0.153,0.651-0.23,1.025-0.23C136.74,78.92,137.28,79.122,137.693,79.524z"/>
		<path fill="#041E42" d="M140.799,84.24c-0.416-0.233-0.742-0.565-0.979-0.995c-0.237-0.43-0.354-0.93-0.354-1.495
			c0-0.56,0.121-1.055,0.364-1.485c0.243-0.43,0.575-0.76,0.995-0.988c0.42-0.23,0.891-0.346,1.409-0.346
			c0.52,0,0.99,0.114,1.41,0.346c0.42,0.229,0.752,0.558,0.994,0.984c0.244,0.426,0.365,0.924,0.365,1.489s-0.125,1.065-0.375,1.495
			s-0.588,0.762-1.015,0.995s-0.899,0.35-1.421,0.35C141.682,84.59,141.216,84.474,140.799,84.24z M143.114,83.56
			c0.286-0.152,0.519-0.383,0.694-0.688c0.178-0.308,0.266-0.681,0.266-1.12s-0.087-0.813-0.26-1.12
			c-0.174-0.307-0.4-0.534-0.68-0.685c-0.281-0.15-0.584-0.227-0.91-0.227c-0.334,0-0.64,0.075-0.916,0.227
			c-0.276,0.148-0.498,0.378-0.664,0.685c-0.168,0.308-0.25,0.681-0.25,1.12c0,0.446,0.08,0.823,0.244,1.13
			c0.164,0.308,0.381,0.535,0.654,0.687c0.273,0.148,0.573,0.225,0.9,0.225C142.52,83.79,142.828,83.714,143.114,83.56z"/>
		<path fill="#041E42" d="M147.014,84.375c-0.332-0.144-0.596-0.344-0.789-0.601c-0.192-0.256-0.301-0.551-0.319-0.885h0.938
			c0.027,0.272,0.155,0.496,0.385,0.67c0.23,0.174,0.533,0.261,0.906,0.261c0.346,0,0.619-0.077,0.819-0.23s0.3-0.347,0.3-0.579
			c0-0.24-0.105-0.419-0.32-0.535c-0.213-0.117-0.543-0.231-0.99-0.346c-0.405-0.105-0.737-0.215-0.993-0.324
			c-0.257-0.109-0.478-0.273-0.66-0.49c-0.185-0.217-0.274-0.502-0.274-0.854c0-0.28,0.084-0.536,0.25-0.771
			c0.166-0.232,0.403-0.418,0.711-0.555c0.307-0.138,0.655-0.205,1.049-0.205c0.606,0,1.098,0.152,1.471,0.459
			c0.373,0.308,0.572,0.729,0.6,1.262h-0.91c-0.02-0.287-0.135-0.518-0.345-0.69s-0.491-0.26-0.845-0.26
			c-0.326,0-0.587,0.069-0.78,0.21c-0.192,0.141-0.29,0.322-0.29,0.55c0,0.181,0.059,0.328,0.176,0.445
			c0.117,0.116,0.264,0.21,0.439,0.278c0.178,0.07,0.422,0.148,0.734,0.235c0.395,0.106,0.714,0.212,0.961,0.315
			c0.246,0.104,0.457,0.258,0.635,0.465c0.176,0.206,0.268,0.477,0.275,0.811c0,0.299-0.084,0.569-0.25,0.811
			c-0.168,0.238-0.402,0.428-0.705,0.564c-0.305,0.137-0.652,0.204-1.045,0.204C147.725,84.59,147.348,84.519,147.014,84.375z"/>
		<path fill="#041E42" d="M158.214,82.95h-3.04l-0.561,1.55h-0.959l2.52-6.93h1.051l2.51,6.93h-0.961L158.214,82.95z M157.953,82.21
			l-1.26-3.52l-1.26,3.52H157.953z"/>
		<path fill="#041E42" d="M160.863,77.95c-0.119-0.12-0.18-0.268-0.18-0.439c0-0.174,0.061-0.32,0.18-0.439
			c0.121-0.12,0.268-0.182,0.441-0.182c0.166,0,0.308,0.062,0.424,0.182c0.117,0.119,0.176,0.267,0.176,0.439
			c0,0.174-0.059,0.319-0.176,0.439c-0.116,0.12-0.258,0.18-0.424,0.18C161.131,78.13,160.984,78.07,160.863,77.95z M161.744,79.019
			v5.48h-0.91v-5.48H161.744z"/>
		<path fill="#041E42" d="M164.889,79.181c0.297-0.174,0.658-0.261,1.086-0.261v0.94h-0.24c-1.021,0-1.53,0.553-1.53,1.658v2.98
			h-0.91v-5.48h0.91v0.892C164.363,79.597,164.592,79.353,164.889,79.181z"/>
		<path fill="#041E42" d="M171.994,82.101h-4.381c0.033,0.539,0.219,0.961,0.555,1.266c0.337,0.303,0.746,0.455,1.227,0.455
			c0.394,0,0.722-0.092,0.984-0.275c0.264-0.184,0.447-0.428,0.555-0.734h0.98c-0.146,0.526-0.439,0.955-0.881,1.285
			c-0.439,0.33-0.986,0.494-1.641,0.494c-0.521,0-0.984-0.115-1.396-0.35s-0.731-0.564-0.965-0.995
			c-0.234-0.431-0.351-0.929-0.351-1.495s0.113-1.063,0.34-1.49c0.228-0.427,0.545-0.755,0.955-0.983
			c0.41-0.23,0.881-0.347,1.416-0.347c0.521,0,0.979,0.113,1.379,0.34c0.4,0.229,0.709,0.539,0.926,0.937
			c0.217,0.396,0.324,0.845,0.324,1.345C172.023,81.724,172.014,81.906,171.994,82.101z M170.854,80.465
			c-0.153-0.25-0.361-0.438-0.625-0.569c-0.265-0.131-0.556-0.194-0.875-0.194c-0.461,0-0.853,0.146-1.176,0.438
			c-0.322,0.295-0.509,0.7-0.556,1.222h3.461C171.084,81.015,171.007,80.715,170.854,80.465z"/>
		<path fill="#041E42" d="M174.033,84.375c-0.333-0.144-0.596-0.344-0.789-0.601c-0.193-0.256-0.301-0.551-0.32-0.885h0.939
			c0.027,0.272,0.154,0.496,0.385,0.67s0.532,0.261,0.906,0.261c0.346,0,0.619-0.077,0.818-0.23c0.2-0.153,0.301-0.347,0.301-0.579
			c0-0.24-0.106-0.419-0.32-0.535c-0.213-0.117-0.543-0.231-0.99-0.346c-0.406-0.105-0.738-0.215-0.994-0.324
			c-0.257-0.109-0.477-0.273-0.66-0.49s-0.274-0.502-0.274-0.854c0-0.28,0.084-0.536,0.25-0.771
			c0.167-0.232,0.403-0.418,0.711-0.555c0.308-0.138,0.655-0.205,1.049-0.205c0.606,0,1.099,0.152,1.472,0.459
			c0.373,0.308,0.572,0.729,0.6,1.262h-0.91c-0.02-0.287-0.135-0.518-0.346-0.69c-0.209-0.173-0.49-0.26-0.844-0.26
			c-0.326,0-0.588,0.069-0.781,0.21c-0.192,0.141-0.289,0.322-0.289,0.55c0,0.181,0.059,0.328,0.176,0.445
			c0.115,0.116,0.263,0.21,0.439,0.278c0.176,0.07,0.422,0.148,0.733,0.235c0.396,0.106,0.714,0.212,0.961,0.315
			c0.246,0.104,0.458,0.258,0.636,0.465c0.176,0.206,0.268,0.477,0.274,0.811c0,0.299-0.084,0.569-0.25,0.811
			c-0.167,0.238-0.401,0.428-0.705,0.564s-0.651,0.204-1.045,0.204C174.744,84.59,174.367,84.519,174.033,84.375z"/>
	</g>
	<g enable-background="new    ">
		<g>
			<path fill="#041E42" d="M45.262,90.99c0.774,0.411,1.374,0.987,1.8,1.729c0.425,0.741,0.637,1.598,0.637,2.568
				c0,0.962-0.212,1.814-0.637,2.563c-0.426,0.746-1.027,1.326-1.807,1.735c-0.778,0.411-1.682,0.616-2.709,0.616h-3.682v-9.828
				h3.682C43.582,90.374,44.487,90.579,45.262,90.99z M44.506,97.388c0.504-0.494,0.756-1.193,0.756-2.1s-0.252-1.609-0.756-2.114
				c-0.504-0.504-1.208-0.756-2.113-0.756h-1.135v5.712h1.135C43.297,98.13,44.002,97.883,44.506,97.388z"/>
			<path fill="#041E42" d="M51.436,92.292v1.988h3.207v1.848h-3.207v2.156h3.627v1.918h-6.021v-9.828h6.021v1.918H51.436z"/>
			<path fill="#041E42" d="M59.01,98.354h3.137v1.848h-5.531v-9.828h2.395V98.354z"/>
			<path fill="#041E42" d="M65.688,92.292v1.988h3.207v1.848h-3.207v2.156h3.627v1.918h-6.021v-9.828h6.021v1.918H65.688z"/>
			<path fill="#041E42" d="M77.393,93.481c-0.179-0.326-0.433-0.575-0.764-0.748c-0.332-0.174-0.721-0.26-1.169-0.26
				c-0.774,0-1.396,0.254-1.862,0.764c-0.467,0.509-0.699,1.188-0.699,2.037c0,0.904,0.244,1.611,0.734,2.121
				c0.49,0.509,1.165,0.763,2.023,0.763c0.588,0,1.084-0.149,1.49-0.448s0.703-0.729,0.89-1.288h-3.038v-1.764h5.208v2.226
				c-0.177,0.598-0.479,1.153-0.903,1.666c-0.425,0.514-0.964,0.93-1.617,1.246c-0.652,0.317-1.391,0.477-2.211,0.477
				c-0.972,0-1.837-0.213-2.598-0.637c-0.762-0.425-1.354-1.016-1.777-1.771c-0.426-0.756-0.638-1.619-0.638-2.59
				s0.212-1.838,0.638-2.598c0.424-0.761,1.014-1.354,1.771-1.777c0.756-0.426,1.618-0.639,2.59-0.639
				c1.176,0,2.167,0.285,2.976,0.854c0.807,0.569,1.34,1.358,1.603,2.366H77.393L77.393,93.481z"/>
			<path fill="#041E42" d="M81.627,99.942c-0.266-0.246-0.398-0.553-0.398-0.916c0-0.373,0.133-0.688,0.398-0.938
				s0.609-0.378,1.029-0.378c0.41,0,0.748,0.126,1.016,0.378c0.266,0.252,0.398,0.565,0.398,0.938c0,0.363-0.133,0.67-0.398,0.916
				c-0.268,0.248-0.605,0.371-1.016,0.371C82.234,100.313,81.893,100.19,81.627,99.942z"/>
			<path fill="#041E42" d="M99.581,90.374v9.828h-2.395v-5.895l-2.197,5.895h-1.933l-2.213-5.908v5.908h-2.395v-9.828h2.828
				l2.759,6.805l2.729-6.805H99.581z"/>
			<path fill="#041E42" d="M103.696,92.292v1.988h3.207v1.848h-3.207v2.156h3.627v1.918h-6.021v-9.828h6.021v1.918H103.696z"/>
			<path fill="#041E42" d="M113.889,100.202l-2.044-3.71h-0.574v3.71h-2.394v-9.828h4.019c0.773,0,1.435,0.137,1.98,0.406
				c0.546,0.271,0.954,0.642,1.225,1.113c0.271,0.471,0.406,0.996,0.406,1.573c0,0.653-0.186,1.237-0.553,1.75
				c-0.369,0.515-0.912,0.878-1.631,1.093l2.268,3.893H113.889z M111.271,94.798h1.484c0.438,0,0.768-0.105,0.986-0.32
				c0.22-0.215,0.33-0.52,0.33-0.91c0-0.373-0.11-0.668-0.33-0.883c-0.219-0.215-0.549-0.321-0.986-0.321h-1.484V94.798z"/>
			<path fill="#041E42" d="M118.229,92.677c0.42-0.76,1.006-1.353,1.756-1.777c0.752-0.424,1.604-0.637,2.556-0.637
				c1.168,0,2.166,0.309,2.996,0.924c0.831,0.615,1.387,1.457,1.666,2.521h-2.632c-0.196-0.41-0.475-0.724-0.834-0.938
				c-0.358-0.215-0.768-0.321-1.225-0.321c-0.736,0-1.335,0.257-1.792,0.77c-0.458,0.515-0.687,1.2-0.687,2.06
				s0.229,1.545,0.687,2.058c0.457,0.515,1.056,0.771,1.792,0.771c0.457,0,0.865-0.106,1.225-0.321
				c0.36-0.216,0.638-0.527,0.834-0.938h2.632c-0.279,1.064-0.835,1.902-1.666,2.514c-0.83,0.611-1.828,0.918-2.996,0.918
				c-0.951,0-1.804-0.213-2.556-0.639c-0.75-0.424-1.336-1.015-1.756-1.771s-0.631-1.619-0.631-2.59
				C117.599,94.306,117.81,93.437,118.229,92.677z"/>
			<path fill="#041E42" d="M131.067,92.292v1.988h3.205v1.848h-3.205v2.156h3.625v1.918h-6.02v-9.828h6.02v1.918H131.067z"/>
			<path fill="#041E42" d="M142.646,90.99c0.773,0.411,1.373,0.987,1.799,1.729c0.424,0.741,0.638,1.598,0.638,2.568
				c0,0.962-0.214,1.814-0.638,2.563c-0.426,0.746-1.026,1.326-1.807,1.735c-0.779,0.411-1.683,0.616-2.709,0.616h-3.682v-9.828
				h3.682C140.964,90.374,141.87,90.579,142.646,90.99z M141.888,97.388c0.506-0.494,0.758-1.193,0.758-2.1
				s-0.252-1.609-0.758-2.114c-0.504-0.504-1.208-0.756-2.113-0.756h-1.134v5.712h1.134C140.68,98.13,141.384,97.883,141.888,97.388
				z"/>
			<path fill="#041E42" d="M148.817,92.292v1.988h3.207v1.848h-3.207v2.156h3.627v1.918h-6.021v-9.828h6.021v1.918H148.817z"/>
			<path fill="#041E42" d="M155.622,99.95c-0.569-0.233-1.023-0.579-1.365-1.036c-0.34-0.457-0.52-1.008-0.539-1.651h2.549
				c0.037,0.363,0.163,0.643,0.379,0.832c0.213,0.191,0.494,0.287,0.84,0.287c0.354,0,0.635-0.08,0.84-0.244s0.308-0.391,0.308-0.68
				c0-0.242-0.081-0.443-0.244-0.602c-0.163-0.159-0.364-0.289-0.603-0.394c-0.237-0.103-0.576-0.219-1.016-0.35
				c-0.635-0.196-1.152-0.394-1.555-0.589c-0.4-0.195-0.746-0.484-1.035-0.867s-0.434-0.883-0.434-1.498
				c0-0.915,0.33-1.631,0.992-2.148c0.664-0.519,1.526-0.777,2.592-0.777c1.082,0,1.955,0.26,2.617,0.777
				c0.662,0.519,1.018,1.238,1.063,2.162h-2.59c-0.021-0.316-0.136-0.566-0.351-0.749c-0.215-0.182-0.489-0.272-0.825-0.272
				c-0.29,0-0.523,0.078-0.701,0.23c-0.177,0.154-0.267,0.376-0.267,0.665c0,0.317,0.149,0.565,0.449,0.742
				c0.297,0.178,0.764,0.369,1.398,0.574c0.635,0.215,1.15,0.42,1.547,0.616c0.396,0.194,0.74,0.479,1.029,0.854
				s0.434,0.854,0.434,1.441c0,0.561-0.143,1.068-0.426,1.525c-0.285,0.458-0.698,0.822-1.24,1.094
				c-0.541,0.271-1.18,0.404-1.918,0.404C156.835,100.3,156.192,100.185,155.622,99.95z"/>
		</g>
	</g>
</g>
<g>
	<circle fill="#FFFFFF" cx="100" cy="32.919" r="22.08"/>
	<circle fill="none" stroke="#041E42" stroke-miterlimit="10" cx="100" cy="32.919" r="24"/>
	<g>
		<g>
			<path fill="#041E42" d="M98.105,34.405l0.015,1.82c0.109,0.043,0.242,0.046,0.35-0.005c0.157-0.081-0.033,0.039,0.057-0.041
				l0.531-0.538c0.006-0.006,0.009-0.014,0.014-0.023l0.046-0.055c0.187-0.25,0.319-1.213,0.467-1.291
				c0.098,0.049,0.104,0.016,0.096,0.338c-0.025,1.166,0.093,0.355,0.093,1.105l0.005,2.313c-0.005,0.069,0.002,0.042-0.014,0.099
				c-0.028,0.102-0.132,0.213-0.202,0.293c-0.133,0.141-0.266,0.236-0.391,0.369c-0.119,0.122-0.242,0.271-0.379,0.379
				c-0.228,0.172-0.072,0.078-0.243,0.342c-0.076,0.121-0.045-0.05-0.061,0.136c0.275,0.167,1.708,0.075,2.168,0.075
				c0.758,0,1.518,0.002,2.277,0c0.201-0.002,0.137-0.011,0.283-0.065c-0.035-0.291-0.479-0.501-0.838-0.905
				c-0.082-0.094-0.031-0.039-0.107-0.094c-0.049-0.04-0.014,0-0.059-0.045l-0.268-0.272c-0.063-0.044-0.148-0.095-0.201-0.226
				c-0.047-0.117-0.043-3.643-0.008-3.867c0.682-0.043,1.322-0.016,2.01-0.029c0.078-0.117,0.094-0.244,0.182-0.375
				c0.088-0.119,0.082-0.281,0.055-0.501c-0.053-0.437-0.361-0.339-0.807-0.339l-4.661,0.028c-0.192,0-0.404-0.034-0.509,0.072
				c-0.069,0.072-0.178,0.268-0.178,0.407c0.001,0.143,0.066,0.199,0.149,0.428C98.071,34.192,98.105,34.028,98.105,34.405"/>
		</g>
		<g>
			<path fill="#041E42" d="M104.084,32.508l-0.021,0.028c0.154-0.033,0.133-0.354,0.129-0.478c-0.008-0.173-0.021-0.392-0.113-0.482
				c-0.168-0.124-4.762-0.024-5.667-0.034c-0.257-0.002-0.394-0.188-0.514-0.388c-0.227-0.533-0.406-1.065-0.621-1.585
				c-0.108-0.258-0.16-1.308-0.039-1.594c0.308-0.748,0.424-0.537,1.209-0.537c0.464,0.002,1.316-0.06,1.714,0.047
				c0.021,0.337-0.051,1.67,0.04,1.856c0.176,0.36,0.986,0.283,1.162,0.228c0.223-0.068,0.047,0.011,0.16-0.095
				c0.117-0.114,0.121-0.159,0.121-0.159l0.021-2.19c0-0.357,0.041-0.414-0.127-0.639c-0.141-0.186-0.158-0.228-0.424-0.3
				c-0.375-0.101-0.018-0.094-0.665-0.094c-0.507,0.002-1.013,0.002-1.518,0c-0.495,0-0.99,0-1.485,0
				c-0.758,0.002-0.674,0.009-1.059,0.456c-0.089,0.102-0.36,0.589-0.392,0.723c-0.159,0.689-0.23,0.77-0.195,1.715
				c0.022,0.614,0.071,1.006,0.29,1.594c0.04,0.111,0.074,0.229,0.113,0.335l0.659,1.139c0.065,0.073,0.125,0.111,0.195,0.187
				c0.378,0.41,0.493,0.422,1.111,0.421c0.521,0,2.666,0.029,2.994-0.016c0.301-0.04,2.061-0.022,2.602-0.017
				C104.119,32.633,104.049,32.605,104.084,32.508"/>
		</g>
		<g>
			<path fill="#041E42" d="M104.096,31.083c0.084-0.144,0.145-0.472,0.094-0.698c-0.074-0.309-0.102-0.357-0.461-0.357
				c-0.752,0.001-4.675-0.016-5.075,0.021c-0.032,0.075-0.011,0.055-0.052,0.122c-0.043,0.07-0.053,0.045-0.088,0.123
				c-0.049,0.109-0.04,0.287-0.025,0.414c0.034,0.266,0.148,0.412,0.411,0.44c0.356,0.039,1.381,0.03,1.756,0.004
				c0.258-0.015,0.127-0.003,0.834-0.003C102.215,31.149,103.498,31.127,104.096,31.083"/>
		</g>
	</g>
	<g>
		<path fill="#22C55E" d="M120,26.02c-2.117-6.131-6.967-10.988-13.1-13.103V26.02H120z"/>
		<path fill="#22C55E" d="M93.1,26.02V12.917C86.966,15.031,82.117,19.889,80,26.02H93.1z"/>
		<path fill="#22C55E" d="M106.9,39.819v13.104c6.133-2.116,10.98-6.973,13.098-13.104H106.9z"/>
		<path fill="#22C55E" d="M80,39.819c2.117,6.132,6.966,10.988,13.099,13.104V39.819H80z"/>
	</g>
</g>
</svg>
