<svg id="visual" viewBox="0 0 1920 1080" width="1920" height="1080" xmlns="http://www.w3.org/2000/svg" xmlns:xlink="http://www.w3.org/1999/xlink" version="1.1"><path d="M0 288L40 256C80 224 160 160 240 145C320 130 400 164 480 168.7C560 173.3 640 148.7 720 141.2C800 133.7 880 143.3 960 168.3C1040 193.3 1120 233.7 1200 258C1280 282.3 1360 290.7 1440 276.7C1520 262.7 1600 226.3 1680 236.8C1760 247.3 1840 304.7 1880 333.3L1920 362L1920 0L1880 0C1840 0 1760 0 1680 0C1600 0 1520 0 1440 0C1360 0 1280 0 1200 0C1120 0 1040 0 960 0C880 0 800 0 720 0C640 0 560 0 480 0C400 0 320 0 240 0C160 0 80 0 40 0L0 0Z" fill="#22c55e" stroke-linecap="round" stroke-linejoin="miter"></path></svg>